<svg width="24" height="24" viewBox="0 0 24 24" fill="none" xmlns="http://www.w3.org/2000/svg">
<g id="uil:arrow-right">
<rect x="-0.75" y="-0.75" width="22.0862" height="22.5" transform="matrix(0 -1 -1 0 22.5 22.0859)" stroke="#262626" stroke-width="1.5"/>
<path id="Vector" d="M12.3801 5.97302C12.5028 6.01979 12.615 6.08993 12.7101 6.1794L17.7101 11.0932C17.8033 11.1848 17.8773 11.2936 17.9277 11.4133C17.9782 11.533 18.0042 11.6614 18.0042 11.7909C18.0042 12.0527 17.8984 12.3037 17.7101 12.4887C17.6168 12.5803 17.5061 12.653 17.3843 12.7026C17.2625 12.7522 17.1319 12.7777 17.0001 12.7777C16.7338 12.7777 16.4784 12.6738 16.2901 12.4887L13.0001 9.2456V16.7047C13.0001 16.9654 12.8947 17.2154 12.7072 17.3997C12.5196 17.584 12.2653 17.6875 12.0001 17.6875C11.7348 17.6875 11.4805 17.584 11.293 17.3997C11.1054 17.2154 11.0001 16.9654 11.0001 16.7047V9.2456L7.71006 12.4887C7.61709 12.5808 7.5065 12.6539 7.38464 12.7038C7.26278 12.7537 7.13207 12.7794 7.00006 12.7794C6.86805 12.7794 6.73734 12.7537 6.61548 12.7038C6.49362 12.6539 6.38302 12.5808 6.29006 12.4887C6.19633 12.3973 6.12194 12.2887 6.07117 12.1689C6.0204 12.0491 5.99426 11.9207 5.99426 11.7909C5.99426 11.6612 6.0204 11.5328 6.07117 11.413C6.12194 11.2932 6.19633 11.1846 6.29006 11.0932L11.2901 6.1794C11.3852 6.08993 11.4973 6.01979 11.6201 5.97302C11.8635 5.87472 12.1366 5.87472 12.3801 5.97302Z" fill="#262626"/>
</g>
</svg>
