<svg width="24" height="24" viewBox="0 0 24 24" fill="none" xmlns="http://www.w3.org/2000/svg">
<g id="uil:arrow-right">
<rect x="23.25" y="1.16406" width="22.0862" height="22.5" transform="rotate(90 23.25 1.16406)" stroke="#262626" stroke-width="1.5"/>
<path id="Vector" d="M12.3801 18.027C12.5028 17.9802 12.615 17.9101 12.7101 17.8206L17.7101 12.9068C17.8033 12.8152 17.8773 12.7064 17.9277 12.5867C17.9782 12.467 18.0042 12.3386 18.0042 12.2091C18.0042 11.9473 17.8984 11.6964 17.7101 11.5113C17.6168 11.4197 17.5061 11.347 17.3843 11.2974C17.2625 11.2478 17.1319 11.2223 17.0001 11.2223C16.7338 11.2223 16.4784 11.3262 16.2901 11.5113L13.0001 14.7544V7.29526C13.0001 7.03461 12.8947 6.78465 12.7072 6.60034C12.5196 6.41604 12.2653 6.3125 12.0001 6.3125C11.7348 6.3125 11.4805 6.41604 11.293 6.60034C11.1054 6.78465 11.0001 7.03461 11.0001 7.29526V14.7544L7.71006 11.5113C7.61709 11.4192 7.5065 11.3461 7.38464 11.2962C7.26278 11.2463 7.13207 11.2206 7.00006 11.2206C6.86805 11.2206 6.73734 11.2463 6.61548 11.2962C6.49362 11.3461 6.38302 11.4192 6.29006 11.5113C6.19633 11.6027 6.12194 11.7113 6.07117 11.8311C6.0204 11.9509 5.99426 12.0793 5.99426 12.2091C5.99426 12.3388 6.0204 12.4672 6.07117 12.587C6.12194 12.7068 6.19633 12.8154 6.29006 12.9068L11.2901 17.8206C11.3852 17.9101 11.4973 17.9802 11.6201 18.027C11.8635 18.1253 12.1366 18.1253 12.3801 18.027Z" fill="#262626"/>
</g>
</svg>
