<svg width="49" height="49" viewBox="0 0 49 49" fill="none" xmlns="http://www.w3.org/2000/svg">
<g id="Icon" clip-path="url(#clip0_2368_14468)">
<g id="g975">
<g id="g977">
<g id="Clip path group">
<mask id="mask0_2368_14468" style="mask-type:luminance" maskUnits="userSpaceOnUse" x="0" y="0" width="49" height="49">
<g id="clipPath983">
<path id="path981" d="M0.333984 0.335941H48.334V48.3359H0.333984V0.335941Z" fill="white"/>
</g>
</mask>
<g mask="url(#mask0_2368_14468)">
<g id="g979">
<g id="g985">
<path id="path987" d="M9.70898 31.8359H7.83398C4.72739 31.8359 2.20898 29.3175 2.20898 26.2109C2.20898 23.1043 4.72739 20.5859 7.83398 20.5859H9.70898V31.8359Z" stroke="#264aa1" stroke-width="2.6" stroke-miterlimit="10"/>
</g>
<g id="g989">
<path id="path991" d="M38.959 31.8359H40.834C43.9406 31.8359 46.459 29.3175 46.459 26.2109C46.459 23.1043 43.9406 20.5859 40.834 20.5859H38.959V31.8359Z" stroke="#264aa1" stroke-width="2.6" stroke-miterlimit="10"/>
</g>
<g id="g993">
<path id="path995" d="M5.95898 20.9062V20.5862C5.95898 10.2308 13.9786 2.21119 24.334 2.21119C34.6893 2.21119 42.709 10.2308 42.709 20.5862V20.9062" stroke="#264aa1" stroke-width="2.6" stroke-miterlimit="10"/>
</g>
<g id="g997">
<path id="path999" d="M28.084 42.7109C28.084 44.782 26.4051 46.4609 24.334 46.4609C22.263 46.4609 20.584 44.782 20.584 42.7109C20.584 40.6399 22.263 38.9609 24.334 38.9609C26.4051 38.9609 28.084 40.6399 28.084 42.7109Z" stroke="#264aa1" stroke-width="2.6" stroke-miterlimit="10"/>
</g>
<g id="g1001">
<path id="path1003" d="M28.084 42.7109H35.209C39.3511 42.7109 42.709 39.3531 42.709 35.2109V31.5159" stroke="#264aa1" stroke-width="2.6" stroke-miterlimit="10"/>
</g>
<g id="g1005">
<path id="path1007" d="M16.834 16.8359V28.0859H20.584L24.334 31.8359L28.084 28.0859H31.834V16.8359H16.834Z" stroke="#264aa1" stroke-width="2.6" stroke-miterlimit="10"/>
</g>
</g>
</g>
</g>
</g>
</g>
</g>
<defs>
<clipPath id="clip0_2368_14468">
<rect width="48" height="48" fill="white" transform="translate(0.333984 0.335938)"/>
</clipPath>
</defs>
</svg>
