<svg width="20" height="20" viewBox="0 0 20 20" fill="none" xmlns="http://www.w3.org/2000/svg">
<g id="Frame">
<path id="Vector" d="M5.78455 4.16742C5.78424 4.84601 5.37255 5.45666 4.7436 5.71142C4.11465 5.96619 3.39404 5.81419 2.92156 5.32711C2.44909 4.84001 2.31911 4.11511 2.5929 3.49421C2.8667 2.87331 3.4896 2.4804 4.16788 2.50075C5.06877 2.5278 5.78496 3.26612 5.78455 4.16742ZM5.83455 7.06742H2.50121V17.5007H5.83455V7.06742ZM11.1012 7.06742H7.78455V17.5007H11.0679V12.0257C11.0679 8.97573 15.0429 8.6924 15.0429 12.0257V17.5007H18.3346V10.8924C18.3346 5.75075 12.4512 5.94242 11.0679 8.4674L11.1012 7.06742Z" fill="#FEFEFE"/>
</g>
</svg>
