<svg width="20" height="20" viewBox="0 0 20 20" fill="none" xmlns="http://www.w3.org/2000/svg">
<g id="Frame">
<path id="Vector" d="M5.78381 4.16742C5.78351 4.84601 5.37181 5.45666 4.74286 5.71142C4.11391 5.96619 3.39331 5.81419 2.92083 5.32711C2.44836 4.84001 2.31837 4.11511 2.59216 3.49421C2.86596 2.87331 3.48886 2.4804 4.16715 2.50075C5.06804 2.5278 5.78422 3.26612 5.78381 4.16742ZM5.83381 7.06742H2.50048V17.5007H5.83381V7.06742ZM11.1005 7.06742H7.78381V17.5007H11.0672V12.0257C11.0672 8.97573 15.0422 8.6924 15.0422 12.0257V17.5007H18.3338V10.8924C18.3338 5.75075 12.4505 5.94242 11.0672 8.4674L11.1005 7.06742Z" fill="#262626"/>
</g>
</svg>
