<svg width="24" height="24" viewBox="0 0 24 24" fill="none" xmlns="http://www.w3.org/2000/svg">
<g id="schedule (1) 1" clip-path="url(#clip0_2368_5182)">
<g id="g597">
<g id="g599">
<g id="Clip path group">
<mask id="mask0_2368_5182" style="mask-type:luminance" maskUnits="userSpaceOnUse" x="0" y="0" width="24" height="24">
<g id="clipPath605">
<path id="path603" d="M0 1.90735e-06H24V24H0V1.90735e-06Z" fill="white"/>
</g>
</mask>
<g mask="url(#mask0_2368_5182)">
<g id="g601">
<g id="g607">
<path id="path609" d="M18.5156 2.10938H2.57812C1.54261 2.10938 0.703125 2.94886 0.703125 3.98438V6.79688H20.3906V3.98438C20.3906 2.94886 19.5512 2.10938 18.5156 2.10938Z" stroke="#264aa1" stroke-width="1.40625" stroke-miterlimit="10" stroke-linecap="round" stroke-linejoin="round"/>
</g>
<g id="g611">
<path id="path613" d="M4.64062 3.51562V0.703125" stroke="#264aa1" stroke-width="1.40625" stroke-miterlimit="10" stroke-linecap="round" stroke-linejoin="round"/>
</g>
<g id="g615">
<path id="path617" d="M16.4531 3.51562V0.703125" stroke="#264aa1" stroke-width="1.40625" stroke-miterlimit="10" stroke-linecap="round" stroke-linejoin="round"/>
</g>
<g id="g619">
<path id="path621" d="M12.5156 3.51562V0.703125" stroke="#264aa1" stroke-width="1.40625" stroke-miterlimit="10" stroke-linecap="round" stroke-linejoin="round"/>
</g>
<g id="g623">
<path id="path625" d="M8.57812 3.51562V0.703125" stroke="#264aa1" stroke-width="1.40625" stroke-miterlimit="10" stroke-linecap="round" stroke-linejoin="round"/>
</g>
<g id="g627">
<path id="path629" d="M12.0469 9.96094H13.2187" stroke="#264aa1" stroke-width="1.40625" stroke-miterlimit="10" stroke-linecap="round" stroke-linejoin="round"/>
</g>
<g id="g631">
<path id="path633" d="M7.875 9.96094H9.04687" stroke="#264aa1" stroke-width="1.40625" stroke-miterlimit="10" stroke-linecap="round" stroke-linejoin="round"/>
</g>
<g id="g635">
<path id="path637" d="M16.2188 9.96094H17.3906" stroke="#264aa1" stroke-width="1.40625" stroke-miterlimit="10" stroke-linecap="round" stroke-linejoin="round"/>
</g>
<g id="g639">
<path id="path641" d="M3.70312 13.125H4.875" stroke="#264aa1" stroke-width="1.40625" stroke-miterlimit="10" stroke-linecap="round" stroke-linejoin="round"/>
</g>
<g id="g643">
<path id="path645" d="M7.875 13.125H9.04687" stroke="#264aa1" stroke-width="1.40625" stroke-miterlimit="10" stroke-linecap="round" stroke-linejoin="round"/>
</g>
<g id="g647">
<path id="path649" d="M12.0469 13.125H13.2187" stroke="#264aa1" stroke-width="1.40625" stroke-miterlimit="10" stroke-linecap="round" stroke-linejoin="round"/>
</g>
<g id="g651">
<path id="path653" d="M3.70312 16.2891H4.875" stroke="#264aa1" stroke-width="1.40625" stroke-miterlimit="10" stroke-linecap="round" stroke-linejoin="round"/>
</g>
<g id="g655">
<path id="path657" d="M7.875 16.2891H9.04687" stroke="#264aa1" stroke-width="1.40625" stroke-miterlimit="10" stroke-linecap="round" stroke-linejoin="round"/>
</g>
<g id="g659">
<path id="path661" d="M23.2969 18.1406C23.2969 20.9883 20.9883 23.2969 18.1406 23.2969C15.2929 23.2969 12.9844 20.9883 12.9844 18.1406C12.9844 15.2929 15.2929 12.9844 18.1406 12.9844C20.9883 12.9844 23.2969 15.2929 23.2969 18.1406Z" stroke="#264aa1" stroke-width="1.40625" stroke-miterlimit="10" stroke-linecap="round" stroke-linejoin="round"/>
</g>
<g id="g663">
<path id="path665" d="M18.1406 15.7969V18.1406H20.4844" stroke="#264aa1" stroke-width="1.40625" stroke-miterlimit="10" stroke-linecap="round" stroke-linejoin="round"/>
</g>
<g id="g667">
<path id="path669" d="M20.3906 13.5V6.79688H0.703125V18.0469C0.703125 18.8235 1.33275 19.4531 2.10938 19.4531H13.1532" stroke="#264aa1" stroke-width="1.40625" stroke-miterlimit="10" stroke-linecap="round" stroke-linejoin="round"/>
</g>
</g>
</g>
</g>
</g>
</g>
</g>
<defs>
<clipPath id="clip0_2368_5182">
<rect width="24" height="24" fill="white"/>
</clipPath>
</defs>
</svg>
