<svg width="40" height="40" viewBox="0 0 40 40" fill="none" xmlns="http://www.w3.org/2000/svg">
<g id="graphic-design 1" clip-path="url(#clip0_2368_13868)">
<g id="Group">
<path id="Vector" d="M38.2852 0.933632C37.1276 -0.224164 35.2981 -0.316266 34.0299 0.719665L22.8377 9.86212H3.90982C2.18473 9.86212 0.78125 11.2652 0.78125 12.9898V31.8464C0.78125 33.571 2.18473 34.9741 3.90982 34.9741H12.8013V37.6564H10.8305C10.1834 37.6564 9.65872 38.181 9.65872 38.8282C9.65872 39.4753 10.1834 40 10.8305 40H23.3696C24.0167 40 24.5413 39.4753 24.5413 38.8282C24.5413 38.181 24.0167 37.6564 23.3696 37.6564H21.3988V34.9741H30.2902C32.0154 34.9741 33.4189 33.571 33.4189 31.8464V11.4145L38.5002 5.18758C39.5349 3.91964 39.4425 2.0908 38.2852 0.933632ZM22.0828 14.5521C22.1188 13.846 22.4406 13.2112 22.9902 12.7636L24.9398 11.171L28.0526 14.2838L26.4563 16.24C26.0093 16.7864 25.3749 17.1068 24.6698 17.1419C23.964 17.1775 23.3014 16.9216 22.8022 16.4224C22.3022 15.9225 22.0467 15.2582 22.0828 14.5521ZM21.1418 22.1126C20.6226 22.6319 19.7577 22.8709 18.5716 22.8233C17.6726 22.7871 16.9027 22.8503 16.2503 22.9679C16.3678 22.3156 16.431 21.5452 16.3949 20.6466C16.3472 19.4604 16.5864 18.5957 17.1056 18.0764C17.6446 17.5374 18.3614 17.2405 19.1237 17.2405C19.8861 17.2405 20.6027 17.5373 21.1418 18.0764C22.2546 19.1892 22.2546 20.9998 21.1418 22.1126ZM19.0552 37.6565H15.1448V34.9742H19.0552V37.6565ZM31.0753 31.8464C31.0753 32.2788 30.7232 32.6306 30.2902 32.6306H3.90982C3.47697 32.6306 3.12481 32.2788 3.12481 31.8464V30.8466H31.0753V31.8464ZM31.0753 28.5031H3.12481V12.9898C3.12481 12.5574 3.47697 12.2057 3.90982 12.2057H20.4224C20.0214 12.8751 19.7828 13.6387 19.7423 14.4327C19.7337 14.6006 19.7341 14.7682 19.7431 14.9347C19.539 14.9106 19.3325 14.8969 19.1238 14.8969C17.7355 14.8969 16.4302 15.4375 15.4486 16.4192C14.4477 17.42 13.9784 18.874 14.0534 20.7407C14.1532 23.2253 13.3294 24.2227 13.2652 24.2964C12.8267 24.7554 12.8331 25.4829 13.2842 25.9341C13.513 26.1629 13.8129 26.2773 14.1128 26.2773C14.4042 26.2773 14.6957 26.1693 14.9218 25.9532C14.9952 25.8893 15.9927 25.0653 18.4776 25.165C20.3449 25.2402 21.7983 24.7707 22.7991 23.7698C23.9685 22.6004 24.4616 21.0079 24.2814 19.4805C24.37 19.4855 24.4588 19.4886 24.548 19.4886C24.6274 19.4886 24.7071 19.4866 24.7868 19.4827C26.1417 19.415 27.4115 18.774 28.2713 17.7228L31.0755 14.2865V28.5031H31.0753ZM14.9413 25.9342C14.9413 25.9342 14.9355 25.9406 14.9231 25.952C14.9292 25.9461 14.9352 25.9402 14.9413 25.9342ZM13.2841 24.277C13.2781 24.283 13.2723 24.289 13.2664 24.295C13.2777 24.2827 13.2841 24.277 13.2841 24.277ZM36.6844 3.70598L29.5418 12.4589L26.7639 9.68104L35.5125 2.53467C35.6671 2.40835 35.8535 2.34602 36.0394 2.34602C36.2529 2.34602 36.4657 2.42843 36.628 2.59076C36.9315 2.89417 36.9557 3.37359 36.6844 3.70598Z" fill="#262626"/>
</g>
</g>
<defs>
<clipPath id="clip0_2368_13868">
<rect width="40" height="40" fill="white"/>
</clipPath>
</defs>
</svg>
