<svg width="40" height="36" viewBox="0 0 40 36" fill="none" xmlns="http://www.w3.org/2000/svg">
<path d="M11.9756 34.4922H28.0242" stroke="#262626" stroke-width="2.34375" stroke-miterlimit="10" stroke-linecap="round" stroke-linejoin="round"/>
<path d="M1.17188 23.0312H38.8281V27.6295C38.8281 28.061 38.4784 28.4108 38.0469 28.4108H1.95312C1.52164 28.4108 1.17188 28.061 1.17188 27.6295V23.0312Z" stroke="#262626" stroke-width="2.34375" stroke-miterlimit="10" stroke-linecap="round" stroke-linejoin="round"/>
<path d="M23.3899 28.4141H16.6105L14.2666 34.482H25.7338L23.3899 28.4141Z" stroke="#262626" stroke-width="2.34375" stroke-miterlimit="10" stroke-linecap="round" stroke-linejoin="round"/>
<path d="M1.95312 1.51172H38.0469C38.4784 1.51172 38.8281 1.86148 38.8281 2.29297V23.0328H1.17188V2.29297C1.17188 1.86148 1.52164 1.51172 1.95312 1.51172Z" stroke="#262626" stroke-width="2.34375" stroke-miterlimit="10" stroke-linecap="round" stroke-linejoin="round"/>
<path d="M13.8502 7.83203L9.37305 12.2313L13.8502 16.7084" stroke="#262626" stroke-width="2.34375" stroke-miterlimit="10" stroke-linecap="round" stroke-linejoin="round"/>
<path d="M26.1504 16.7084L30.6275 12.3091L26.1504 7.83203" stroke="#262626" stroke-width="2.34375" stroke-miterlimit="10" stroke-linecap="round" stroke-linejoin="round"/>
<path d="M21.2434 7.83203L18.0957 16.7084" stroke="#262626" stroke-width="2.34375" stroke-miterlimit="10" stroke-linecap="round" stroke-linejoin="round"/>
</svg>
