<svg width="40" height="40" viewBox="0 0 40 40" fill="none" xmlns="http://www.w3.org/2000/svg">
<g clip-path="url(#clip0_2404_819)">
<path d="M38.8281 1.17188H1.17188V27.0566H38.8281V1.17188Z" stroke="#262626" stroke-width="2.34375" stroke-miterlimit="10" stroke-linecap="round" stroke-linejoin="round"/>
<path d="M1.17188 27.0547V31.7422H38.8281V27.0547" stroke="#262626" stroke-width="2.34375" stroke-miterlimit="10" stroke-linecap="round" stroke-linejoin="round"/>
<path d="M13.4727 38.8258C16.218 36.4578 17.1992 33.2133 17.518 31.7422" stroke="#262626" stroke-width="2.34375" stroke-miterlimit="10" stroke-linecap="round" stroke-linejoin="round"/>
<path d="M22.4824 31.7422C22.8012 33.2133 23.7824 36.4578 26.5277 38.8258" stroke="#262626" stroke-width="2.34375" stroke-miterlimit="10" stroke-linecap="round" stroke-linejoin="round"/>
<path d="M8.70312 38.8281H31.2964" stroke="#262626" stroke-width="2.34375" stroke-miterlimit="10" stroke-linecap="round" stroke-linejoin="round"/>
<path d="M26.8769 18.0938L24.1966 22.3492H15.8038L13.123 18.0938L20.0002 9.84375L26.8769 18.0938Z" stroke="#262626" stroke-width="2.34375" stroke-miterlimit="10" stroke-linecap="round" stroke-linejoin="round"/>
<path d="M20 9.84375V17.6617" stroke="#262626" stroke-width="2.34375" stroke-miterlimit="10" stroke-linecap="round" stroke-linejoin="round"/>
<path d="M24.1965 22.3516V27.0598H15.8037V22.3516" stroke="#262626" stroke-width="2.34375" stroke-miterlimit="10" stroke-linecap="round" stroke-linejoin="round"/>
<path d="M31.8516 11.5547C33.146 11.5547 34.1953 10.5054 34.1953 9.21094C34.1953 7.91652 33.146 6.86719 31.8516 6.86719C30.5571 6.86719 29.5078 7.91652 29.5078 9.21094C29.5078 10.5054 30.5571 11.5547 31.8516 11.5547Z" stroke="#262626" stroke-width="2.34375" stroke-miterlimit="10" stroke-linecap="round" stroke-linejoin="round"/>
<path d="M8.14844 11.5547C9.44285 11.5547 10.4922 10.5054 10.4922 9.21094C10.4922 7.91652 9.44285 6.86719 8.14844 6.86719C6.85402 6.86719 5.80469 7.91652 5.80469 9.21094C5.80469 10.5054 6.85402 11.5547 8.14844 11.5547Z" stroke="#262626" stroke-width="2.34375" stroke-miterlimit="10" stroke-linecap="round" stroke-linejoin="round"/>
<path d="M10.1387 7.97734C12.1645 6.90391 15.6238 5.51953 19.9996 5.51953" stroke="#262626" stroke-width="2.34375" stroke-miterlimit="10" stroke-linecap="round" stroke-linejoin="round"/>
<path d="M20 5.51953C24.3758 5.51953 27.8352 6.90391 29.8609 7.97734" stroke="#262626" stroke-width="2.34375" stroke-miterlimit="10" stroke-linecap="round" stroke-linejoin="round"/>
</g>
<defs>
<clipPath id="clip0_2404_819">
<rect width="40" height="40" fill="white"/>
</clipPath>
</defs>
</svg>
