<svg width="40" height="40" viewBox="0 0 40 40" fill="none" xmlns="http://www.w3.org/2000/svg">
<g id="mobile-app 1">
<g id="Group">
<path id="Vector" d="M30.7031 3.18734V5.85938H9.29688V3.18734C9.29688 2.07422 10.1992 1.17188 11.3123 1.17188H28.6877C29.8008 1.17188 30.7031 2.07422 30.7031 3.18734Z" stroke="#595959" stroke-width="2.34375" stroke-miterlimit="10" stroke-linecap="round" stroke-linejoin="round"/>
<path id="Vector_2" d="M30.7031 28.9844V36.8125C30.7031 37.9258 29.8008 38.8281 28.6875 38.8281H11.3125C10.1992 38.8281 9.29688 37.9258 9.29688 36.8125V28.9844" stroke="#595959" stroke-width="2.34375" stroke-miterlimit="10" stroke-linecap="round" stroke-linejoin="round"/>
<path id="Vector_3" d="M9.29688 11.0156V5.85938H30.7031V11.0156" stroke="#595959" stroke-width="2.34375" stroke-miterlimit="10" stroke-linecap="round" stroke-linejoin="round"/>
<g id="Group_2">
<g id="Group_3">
<g id="Group_4">
<path id="Vector_4" d="M25.0781 17.5391L27.5391 20" stroke="#595959" stroke-width="2.34375" stroke-miterlimit="10" stroke-linecap="round" stroke-linejoin="round"/>
<path id="Vector_5" d="M25.0781 22.4609L27.5391 20" stroke="#595959" stroke-width="2.34375" stroke-miterlimit="10" stroke-linecap="round" stroke-linejoin="round"/>
</g>
<g id="Group_5">
<path id="Vector_6" d="M14.9219 17.5391L12.4609 20" stroke="#595959" stroke-width="2.34375" stroke-miterlimit="10" stroke-linecap="round" stroke-linejoin="round"/>
<path id="Vector_7" d="M14.9219 22.4609L12.4609 20" stroke="#595959" stroke-width="2.34375" stroke-miterlimit="10" stroke-linecap="round" stroke-linejoin="round"/>
</g>
</g>
<path id="Vector_8" d="M21.0967 15.7031L18.9036 24.292" stroke="#595959" stroke-width="2.34375" stroke-miterlimit="10" stroke-linecap="round" stroke-linejoin="round"/>
</g>
<path id="Vector_9" d="M33.6719 11.0156H6.32812V28.9844H33.6719V11.0156Z" stroke="#595959" stroke-width="2.34375" stroke-miterlimit="10" stroke-linecap="round" stroke-linejoin="round"/>
<path id="Vector_10" d="M18.0078 34.1406H21.9922" stroke="#595959" stroke-width="2.34375" stroke-miterlimit="10" stroke-linecap="round" stroke-linejoin="round"/>
</g>
</g>
</svg>
