<svg width="40" height="40" viewBox="0 0 40 40" fill="none" xmlns="http://www.w3.org/2000/svg">
<g id="seo (1) 1" clip-path="url(#clip0_2368_13776)">
<g id="g3468">
<g id="g3470">
<g id="Clip path group">
<mask id="mask0_2368_13776" style="mask-type:luminance" maskUnits="userSpaceOnUse" x="0" y="0" width="40" height="40">
<g id="clipPath3476">
<path id="path3474" d="M0 3.8147e-06H40V40H0V3.8147e-06Z" fill="white"/>
</g>
</mask>
<g mask="url(#mask0_2368_13776)">
<g id="g3472">
<g id="g3478">
<path id="path3480" d="M38.8281 10.5469H1.17188V35.7031C1.17188 37.4291 2.57102 38.8281 4.29687 38.8281H35.7031C37.429 38.8281 38.8281 37.4291 38.8281 35.7031V10.5469Z" stroke="#262626" stroke-width="2.34375" stroke-miterlimit="10" stroke-linecap="round" stroke-linejoin="round"/>
</g>
<g id="g3482">
<path id="path3484" d="M35.7031 1.17188H4.29687C2.57102 1.17188 1.17188 2.57094 1.17188 4.29688V10.5469H38.8281V4.29688C38.8281 2.57094 37.429 1.17188 35.7031 1.17188Z" stroke="#262626" stroke-width="2.34375" stroke-miterlimit="10" stroke-linecap="round" stroke-linejoin="round"/>
</g>
<g id="g3486">
<path id="path3488" d="M35.2344 5.85938C35.2344 6.50656 34.7097 7.03125 34.0625 7.03125C33.4153 7.03125 32.8906 6.50656 32.8906 5.85938C32.8906 5.21219 33.4153 4.6875 34.0625 4.6875C34.7097 4.6875 35.2344 5.21219 35.2344 5.85938Z" fill="#262626"/>
</g>
<g id="g3490">
<path id="path3492" d="M30.5469 5.85938C30.5469 6.50656 30.0222 7.03125 29.375 7.03125C28.7278 7.03125 28.2031 6.50656 28.2031 5.85938C28.2031 5.21219 28.7278 4.6875 29.375 4.6875C30.0222 4.6875 30.5469 5.21219 30.5469 5.85938Z" fill="#262626"/>
</g>
<g id="g3494">
<path id="path3496" d="M25.8594 5.85938C25.8594 6.50656 25.3347 7.03125 24.6875 7.03125C24.0403 7.03125 23.5156 6.50656 23.5156 5.85938C23.5156 5.21219 24.0403 4.6875 24.6875 4.6875C25.3347 4.6875 25.8594 5.21219 25.8594 5.85938Z" fill="#262626"/>
</g>
<g id="g3498">
<path id="path3500" d="M12.3139 18.1702C12.1808 17.9212 10.6355 16.7594 8.65617 17.3556C6.83883 17.9031 6.58461 19.9987 7.89945 20.8559C7.89945 20.8559 9.18961 21.4315 10.6206 21.9593C14.0653 23.2299 12.5815 26.5625 9.80844 26.5625C8.41969 26.5625 7.25422 25.9544 6.54883 25.1759" stroke="#262626" stroke-width="2.34375" stroke-miterlimit="10" stroke-linecap="round" stroke-linejoin="round"/>
</g>
<g id="g3502">
<path id="path3504" d="M20.6612 17.1875H16.7109V26.5625H20.6612" stroke="#262626" stroke-width="2.34375" stroke-miterlimit="10" stroke-linecap="round" stroke-linejoin="round"/>
</g>
<g id="g3506">
<path id="path3508" d="M20.3699 21.875H16.7109" stroke="#262626" stroke-width="2.34375" stroke-miterlimit="10" stroke-linecap="round" stroke-linejoin="round"/>
</g>
<g id="g3510">
<path id="path3512" d="M33.4512 21.875C33.4512 24.4638 31.3525 26.5625 28.7637 26.5625C26.1748 26.5625 24.0762 24.4638 24.0762 21.875C24.0762 19.2862 26.1748 17.1875 28.7637 17.1875C31.3525 17.1875 33.4512 19.2862 33.4512 21.875Z" stroke="#262626" stroke-width="2.34375" stroke-miterlimit="10" stroke-linecap="round" stroke-linejoin="round"/>
</g>
<g id="g3514">
<path id="path3516" d="M5.9375 32.4219H34.0625" stroke="#262626" stroke-width="2.34375" stroke-miterlimit="10" stroke-linecap="round" stroke-linejoin="round"/>
</g>
</g>
</g>
</g>
</g>
</g>
</g>
<defs>
<clipPath id="clip0_2368_13776">
<rect width="40" height="40" fill="white"/>
</clipPath>
</defs>
</svg>
