<svg width="40" height="40" viewBox="0 0 40 40" fill="none" xmlns="http://www.w3.org/2000/svg">
<g clip-path="url(#clip0_2404_895)">
<path d="M32.6563 15.4175C32.8095 14.6244 32.8906 13.8059 32.8906 12.9688C32.8906 5.81773 27.1079 0 20 0C12.8921 0 7.10938 5.81773 7.10938 12.9688C7.10938 13.8059 7.19055 14.6244 7.34367 15.4175C3.00203 17.5034 0 21.9255 0 27.0312C0 30.4745 1.35469 33.7255 3.81461 36.1854C6.27453 38.6453 9.52555 40 12.9688 40C15.561 40 17.9765 39.2255 20 37.8955C22.0235 39.2255 24.439 40 27.0312 40C30.4745 40 33.7255 38.6453 36.1854 36.1854C38.6452 33.7255 40 30.4745 40 27.0312C40 21.9255 36.998 17.5035 32.6563 15.4175ZM20 2.34375C25.8155 2.34375 30.5469 7.11008 30.5469 12.9688C30.5469 13.5195 30.5042 14.0605 30.4225 14.5887C29.341 14.2971 28.2043 14.1406 27.0312 14.1406C24.439 14.1406 22.0235 14.9105 20 16.2325C17.9765 14.9105 15.561 14.1406 12.9688 14.1406C11.7957 14.1406 10.659 14.2971 9.5775 14.5887C9.49578 14.0605 9.45312 13.5195 9.45312 12.9688C9.45312 7.11008 14.1845 2.34375 20 2.34375ZM20 19.1773C21.2073 20.2592 22.1647 21.6144 22.7734 23.1448C21.8893 23.3861 20.9595 23.5156 20 23.5156C19.0405 23.5156 18.1107 23.3861 17.2266 23.1448C17.8354 21.6144 18.7928 20.2592 20 19.1773ZM15.0487 22.2787C12.8538 21.1067 11.1192 19.1816 10.1932 16.8502C11.0784 16.6122 12.0087 16.4844 12.9688 16.4844C14.8105 16.4844 16.543 16.9594 18.0515 17.7926C16.7581 19.05 15.7266 20.5754 15.0487 22.2787ZM21.9485 17.7926C23.457 16.9594 25.1895 16.4844 27.0312 16.4844C27.9912 16.4844 28.9216 16.6122 29.8068 16.8502C28.8808 19.1815 27.1463 21.1067 24.9513 22.2787C24.2734 20.5754 23.2419 19.05 21.9485 17.7926ZM12.9688 37.6562C7.11008 37.6562 2.34375 32.8899 2.34375 27.0312C2.34375 22.9921 4.64344 19.4766 8.01094 17.7054C9.20164 20.7087 11.4898 23.1615 14.3779 24.5671C14.2228 25.3651 14.1406 26.1887 14.1406 27.0312C14.1406 30.677 15.6442 33.9755 18.0595 36.3338C16.5492 37.176 14.8138 37.6562 12.9688 37.6562ZM20 34.9434C17.8437 32.9966 16.4844 30.171 16.4844 27.0312C16.4844 26.4787 16.5273 25.9359 16.6096 25.406C17.6905 25.7009 18.827 25.8594 20 25.8594C21.173 25.8594 22.3096 25.7009 23.3904 25.406C23.4727 25.9359 23.5156 26.4787 23.5156 27.0312C23.5156 30.1709 22.1563 32.9965 20 34.9434ZM27.0312 37.6562C25.1863 37.6562 23.4508 37.176 21.9405 36.3338C24.3558 33.9755 25.8594 30.677 25.8594 27.0312C25.8594 26.1887 25.7772 25.3651 25.6221 24.5671C28.5102 23.1615 30.7983 20.7087 31.9891 17.7054C35.3566 19.4766 37.6562 22.9921 37.6562 27.0312C37.6562 32.8899 32.8898 37.6562 27.0312 37.6562Z" fill="#262626"/>
</g>
<defs>
<clipPath id="clip0_2404_895">
<rect width="40" height="40" fill="white"/>
</clipPath>
</defs>
</svg>
