<svg width="32" height="32" viewBox="0 0 32 32" fill="none" xmlns="http://www.w3.org/2000/svg">
<path d="M9.33333 24C8.93333 24 8.66667 23.8667 8.4 23.6C7.86667 23.0667 7.86667 22.2667 8.4 21.7333L21.7333 8.4C22.2667 7.86667 23.0667 7.86667 23.6 8.4C24.1333 8.93333 24.1333 9.73333 23.6 10.2667L10.2667 23.6C10 23.8667 9.73333 24 9.33333 24Z" fill="#FEFEFE"/>
<path d="M22.6668 22.6667C21.8668 22.6667 21.3335 22.1333 21.3335 21.3333V10.6667H10.6668C9.86683 10.6667 9.3335 10.1333 9.3335 9.33333C9.3335 8.53333 9.86683 8 10.6668 8H22.6668C23.4668 8 24.0002 8.53333 24.0002 9.33333V21.3333C24.0002 22.1333 23.4668 22.6667 22.6668 22.6667Z" fill="#FEFEFE"/>
</svg>
