<svg width="40" height="40" viewBox="0 0 40 40" fill="none" xmlns="http://www.w3.org/2000/svg">
<g id="art-and-design 1">
<g id="g1419">
<g id="g1421">
<g id="Clip path group">
<mask id="mask0_2368_13878" style="mask-type:luminance" maskUnits="userSpaceOnUse" x="0" y="0" width="40" height="40">
<g id="clipPath1427">
<path id="path1425" d="M0 3.8147e-06H40V40H0V3.8147e-06Z" fill="white"/>
</g>
</mask>
<g mask="url(#mask0_2368_13878)">
<g id="g1423">
<g id="g1429">
<path id="path1431" d="M16.4844 7.03125C16.4844 8.97289 14.9104 10.5469 12.9688 10.5469C11.0271 10.5469 9.45312 8.97289 9.45312 7.03125C9.45312 5.08961 12.9688 1.17188 12.9688 1.17188C12.9688 1.17188 16.4844 5.08961 16.4844 7.03125Z" stroke="#262626" stroke-width="2.34375" stroke-miterlimit="10" stroke-linecap="round" stroke-linejoin="round"/>
</g>
<g id="g1433">
<path id="path1435" d="M10.625 17.5781V9.65172" stroke="#262626" stroke-width="2.34375" stroke-miterlimit="10" stroke-linecap="round" stroke-linejoin="round"/>
</g>
<g id="g1437">
<path id="path1439" d="M15.3125 9.65172V17.5781" stroke="#262626" stroke-width="2.34375" stroke-miterlimit="10" stroke-linecap="round" stroke-linejoin="round"/>
</g>
<g id="g1441">
<path id="path1443" d="M24.6875 12.363L29.9241 1.47875L36.2602 4.52711L29.9812 17.5781" stroke="#262626" stroke-width="2.34375" stroke-miterlimit="10" stroke-linecap="round" stroke-linejoin="round"/>
</g>
<g id="g1445">
<path id="path1447" d="M31.0596 7.22578L34.2276 8.75" stroke="#262626" stroke-width="2.34375" stroke-miterlimit="10" stroke-linecap="round" stroke-linejoin="round"/>
</g>
<g id="g1449">
<path id="path1451" d="M29.0283 11.4523L32.1964 12.9766" stroke="#262626" stroke-width="2.34375" stroke-miterlimit="10" stroke-linecap="round" stroke-linejoin="round"/>
</g>
<g id="g1453">
<path id="path1455" d="M8.49836 17.5781C8.36969 18.3426 8.28125 19.1208 8.28125 19.9219L3.59375 26.9531L8.28125 29.2969V34.0625C8.28125 35.3568 9.33047 36.4844 10.625 36.4844H17.6562V38.8281H31.9131C32.3749 34.1777 33.6765 29.488 35.4166 25.1127C36.3223 22.8354 36.6159 20.2598 36.1839 17.5781H8.49836Z" stroke="#262626" stroke-width="2.34375" stroke-miterlimit="10" stroke-linecap="round" stroke-linejoin="round"/>
</g>
<g id="g1457">
<path id="path1459" d="M24.6875 17.5781V8.20312L22.3438 1.17188L20 8.20312V17.5781" stroke="#262626" stroke-width="2.34375" stroke-miterlimit="10" stroke-linecap="round" stroke-linejoin="round"/>
</g>
<g id="g1461">
<path id="path1463" d="M20 8.20312H24.6875" stroke="#262626" stroke-width="2.34375" stroke-miterlimit="10" stroke-linecap="round" stroke-linejoin="round"/>
</g>
</g>
</g>
</g>
</g>
</g>
</g>
</svg>
