<svg width="60" height="60" viewBox="0 0 60 60" fill="none" xmlns="http://www.w3.org/2000/svg">
<circle cx="30" cy="30" r="30" fill="#FEFEFE"/>
<path d="M37.875 30.0003C37.8755 30.1913 37.8265 30.3792 37.7329 30.5457C37.6392 30.7121 37.5041 30.8515 37.3406 30.9503L27.21 37.1476C27.0392 37.2522 26.8436 37.3093 26.6433 37.313C26.4431 37.3167 26.2455 37.2669 26.0709 37.1687C25.898 37.072 25.754 36.9311 25.6537 36.7603C25.5533 36.5895 25.5003 36.3951 25.5 36.197V23.8037C25.5003 23.6056 25.5533 23.4112 25.6537 23.2404C25.754 23.0696 25.898 22.9287 26.0709 22.832C26.2455 22.7338 26.4431 22.684 26.6433 22.6877C26.8436 22.6914 27.0392 22.7485 27.21 22.8531L37.3406 29.0504C37.5041 29.1492 37.6392 29.2886 37.7329 29.455C37.8265 29.6215 37.8755 29.8094 37.875 30.0003Z" fill="#262626"/>
</svg>
