<svg width="54" height="70" viewBox="0 0 54 70" fill="none" xmlns="http://www.w3.org/2000/svg">
<g id="Client 3" clip-path="url(#clip0_2404_1010)">
<path id="Vector" d="M0.772009 69.6733H1.25934V66.8487H2.03094V66.3984H0.0410156V66.8487H0.772009V69.6733Z" fill="#262626"/>
<path id="Vector_2" d="M4.6291 69.6728L4.99459 68.8541H6.41597L6.74085 69.6728H7.26879L5.68497 66.1523L4.06055 69.6728H4.6291ZM5.72559 67.2985L6.21291 68.4447H5.19765L5.72559 67.2985Z" fill="#262626"/>
<path id="Vector_3" d="M11.2896 66.7647C11.6957 66.7647 12.0206 66.9284 12.2643 67.2968L12.6298 66.9693C12.4267 66.7237 12.2237 66.56 12.0206 66.4372C11.8176 66.3144 11.5739 66.2734 11.2896 66.2734C10.8023 66.2734 10.3962 66.4372 10.0713 66.7647C9.74643 67.0922 9.58398 67.5015 9.58398 67.9927C9.58398 68.443 9.74643 68.8524 10.0713 69.2208C10.3962 69.5483 10.8023 69.712 11.249 69.712C11.7364 69.712 12.1018 69.5483 12.4267 69.1799C12.5486 69.0161 12.6704 68.8524 12.711 68.6886C12.7516 68.484 12.7922 68.2793 12.7922 68.0337V67.9109H11.4521V68.3612H12.2643C12.2237 68.6068 12.1425 68.8115 11.9394 68.9752C11.7364 69.1389 11.5333 69.2208 11.2896 69.2208C11.0054 69.2208 10.7211 69.098 10.4774 68.8933C10.2338 68.6477 10.0713 68.3612 10.0713 67.9927C10.0713 67.6243 10.1931 67.3378 10.4368 67.0922C10.6399 66.8875 10.9241 66.7647 11.2896 66.7647Z" fill="#262626"/>
<path id="Vector_4" d="M15.96 66.3984V69.6733H17.422V69.223H16.4879V66.3984H15.96Z" fill="#262626"/>
<path id="Vector_5" d="M20.5889 66.3984H20.1016V69.7142H20.5889V66.3984Z" fill="#262626"/>
<path id="Vector_6" d="M23.5547 69.6728H24.042V67.3804L26.438 69.8775V66.398H25.9507V68.6904L23.5547 66.1523V69.6728Z" fill="#262626"/>
<path id="Vector_7" d="M29.4023 69.6733H31.2298V69.223H29.8897V68.1177H31.1892V67.6265H29.8897V66.8487H31.2298V66.3984H29.4023V69.6733Z" fill="#262626"/>
<path id="Vector_8" d="M38.4985 67.6674H37.0772V66.3984H36.5898V69.6733H37.0772V68.1587H38.4985V69.6733H38.9859V66.3984H38.4985V67.6674Z" fill="#262626"/>
<path id="Vector_9" d="M43.7787 66.8487V66.3984H41.9512V69.6733H43.7787V69.223H42.4385V68.1177H43.738V67.6265H42.4385V66.8487H43.7787Z" fill="#262626"/>
<path id="Vector_10" d="M47.7176 68.2794C47.9206 68.2385 48.1237 68.1157 48.2455 67.952C48.3674 67.7882 48.4486 67.5835 48.4486 67.3379C48.4486 67.0514 48.3267 66.8058 48.1237 66.6011C47.9206 66.4373 47.6364 66.3555 47.1896 66.3555H46.6211V69.6713H47.1084V68.3204H47.1896L48.1237 69.6713H48.7328L47.7176 68.2794ZM47.0678 67.911V66.8467H47.2303C47.677 66.8467 47.9206 67.0104 47.9206 67.3379C47.9206 67.7063 47.677 67.8701 47.2303 67.8701H47.0678V67.911Z" fill="#262626"/>
<path id="Vector_11" d="M53.2 66.8487V66.3984H51.4131V69.6733H53.2V69.223H51.9004V68.1177H53.1593V67.6265H51.9004V66.8487H53.2Z" fill="#262626"/>
<path id="Vector_12" d="M11.0059 30.7427L32.8138 8.80117V0L11.0059 21.9825V30.7427Z" fill="#262626"/>
<path id="Vector_13" d="M11.0059 49.8613L32.8138 27.8787V20.7969L11.0059 42.7794V49.8613Z" fill="#262626"/>
<path id="Vector_14" d="M20.4277 30.7415L42.2357 8.79999V1.39062L20.4277 23.3731V30.7415Z" fill="#262626"/>
<path id="Vector_15" d="M42.2357 20.5078L20.4277 42.4904V49.8589L42.2357 27.8762V20.5078Z" fill="#262626"/>
<path id="Vector_16" d="M0.934046 62.1399C1.21832 62.4265 1.54321 62.6311 1.94931 62.7949C2.31481 62.9586 2.76153 63.0405 3.20824 63.0405C3.65496 63.0405 4.06107 62.9586 4.46718 62.7949C4.87328 62.6311 5.19817 62.3446 5.44183 61.9762L4.5484 61.3621C4.34534 61.6078 4.14229 61.8124 3.89863 61.9352C3.65496 62.058 3.45191 62.099 3.20824 62.099C2.88336 62.099 2.59908 62.058 2.35542 61.9352C2.11176 61.8124 1.9087 61.6487 1.70565 61.4849C1.54321 61.2803 1.38076 61.0346 1.29954 60.789C1.21832 60.5025 1.1371 60.2159 1.1371 59.8885C1.1371 59.6019 1.17771 59.3154 1.29954 59.0288C1.38076 58.7832 1.54321 58.5376 1.70565 58.3329C1.86809 58.1282 2.11176 57.9645 2.35542 57.8826C2.59908 57.7598 2.88336 57.7189 3.20824 57.7189C3.4113 57.7189 3.61435 57.7598 3.8174 57.8417C4.02046 57.9235 4.22351 58.0873 4.46718 58.3329L5.27939 57.7189C4.99512 57.3914 4.67023 57.1458 4.30473 56.982C3.93924 56.8183 3.57374 56.7773 3.16763 56.7773C2.72092 56.7773 2.2742 56.8592 1.9087 57.023C1.54321 57.1867 1.17771 57.3914 0.893435 57.6779C0.60916 57.9645 0.406106 58.292 0.243663 58.7013C0.0812206 59.1107 0 59.52 0 60.0113C0 60.4616 0.0812206 60.9118 0.243663 61.2803C0.446718 61.5668 0.649771 61.8943 0.934046 62.1399Z" fill="#262626"/>
<path id="Vector_17" d="M8.40711 62.1418C8.69138 62.4283 9.01627 62.633 9.42237 62.7968C9.78787 62.9605 10.2346 63.0424 10.6813 63.0424C11.128 63.0424 11.5747 62.9605 11.9808 62.7968C12.387 62.633 12.7118 62.4283 12.9961 62.1418C13.2804 61.8552 13.4834 61.5278 13.6459 61.1593C13.8083 60.7909 13.8896 60.3406 13.8896 59.8903C13.8896 59.3991 13.8083 58.9897 13.6459 58.5804C13.4834 58.171 13.2804 57.8435 12.9961 57.557C12.7118 57.2704 12.387 57.0658 11.9808 56.943C11.5747 56.7792 11.1686 56.7383 10.6813 56.7383C10.2346 56.7383 9.78787 56.8201 9.42237 56.9839C9.05688 57.1476 8.69138 57.3523 8.40711 57.6389C8.12283 57.9254 7.91978 58.2529 7.75734 58.6623C7.59489 59.0716 7.51367 59.481 7.51367 59.9722C7.51367 60.4225 7.59489 60.8728 7.75734 61.2412C7.87917 61.5687 8.12283 61.8962 8.40711 62.1418ZM8.7726 58.9897C8.85382 58.7441 9.01627 58.4985 9.17871 58.2938C9.34115 58.0892 9.58482 57.9254 9.82848 57.8435C10.0721 57.7207 10.3564 57.6798 10.6813 57.6798C11.0062 57.6798 11.2905 57.7207 11.5341 57.8435C11.7778 57.9664 12.0215 58.0892 12.1839 58.2938C12.3463 58.4985 12.5088 58.7032 12.59 58.9897C12.6712 59.2354 12.7525 59.5219 12.7525 59.8494C12.7525 60.1769 12.7118 60.4634 12.59 60.75C12.5088 61.0365 12.3463 61.2412 12.1839 61.4459C12.0215 61.6506 11.7778 61.8143 11.5341 61.8962C11.2905 62.019 11.0062 62.0599 10.6813 62.0599C10.3564 62.0599 10.0721 62.019 9.82848 61.8962C9.58482 61.7734 9.38176 61.6096 9.17871 61.4459C9.01627 61.2412 8.85382 60.9956 8.7726 60.75C8.69138 60.4634 8.61016 60.1769 8.61016 59.8494C8.61016 59.5219 8.65077 59.2354 8.7726 58.9897Z" fill="#262626"/>
<path id="Vector_18" d="M18.1938 56.8594H16.5693V62.8769H17.5846V57.8828L19.4121 62.8769H20.1431L21.9706 57.8828V62.8769H22.9859V56.8594H21.402L19.7776 61.0758L18.1938 56.8594Z" fill="#262626"/>
<path id="Vector_19" d="M27.088 60.3819H27.8596C28.1845 60.3819 28.4687 60.3409 28.753 60.3C29.0373 60.2591 29.281 60.1772 29.5246 60.0544C29.7277 59.9316 29.9307 59.7269 30.0526 59.5222C30.1744 59.2766 30.2556 58.9901 30.2556 58.6216C30.2556 58.2942 30.215 58.0076 30.0932 57.8029C29.9713 57.5982 29.8089 57.3936 29.6058 57.2708C29.4028 57.148 29.1591 57.0251 28.9155 56.9842C28.6312 56.9433 28.3875 56.9023 28.1032 56.9023H26.1133V62.9199H27.1692V60.3819H27.088ZM27.088 57.762H27.8596C27.9814 57.762 28.1439 57.762 28.3063 57.8029C28.4687 57.8029 28.5906 57.8439 28.7124 57.9257C28.8342 57.9667 28.9561 58.0895 28.9967 58.1714C29.0779 58.2942 29.1185 58.417 29.1185 58.6216C29.1185 58.8263 29.0779 58.9901 28.9967 59.1129C28.9155 59.2357 28.7936 59.3175 28.6718 59.3585C28.55 59.3994 28.3875 59.4404 28.2251 59.4404C28.0626 59.4404 27.9002 59.4404 27.7377 59.4404H27.088V57.762Z" fill="#262626"/>
<path id="Vector_20" d="M33.3014 61.4851H35.9005L36.469 62.8769H37.6873L35.1289 56.8594H34.1948L31.5957 62.8769H32.7735L33.3014 61.4851ZM34.6009 58.1284L35.535 60.5845H33.6669L34.6009 58.1284Z" fill="#262626"/>
<path id="Vector_21" d="M40.042 56.8594V62.8769H41.0978V58.2512L44.0624 62.8769H45.4026V56.8594H44.3467V61.3214L41.4227 56.8594H40.042Z" fill="#262626"/>
<path id="Vector_22" d="M49.9109 62.8769H50.9668V60.298L53.2004 56.8594H51.9415L50.4389 59.2336L48.9769 56.8594H47.6367L49.9109 60.298V62.8769Z" fill="#262626"/>
</g>
<defs>
<clipPath id="clip0_2404_1010">
<rect width="53.2" height="70" fill="white"/>
</clipPath>
</defs>
</svg>
