<svg width="63" height="70" viewBox="0 0 63 70" fill="none" xmlns="http://www.w3.org/2000/svg">
<g id="Client 1" clip-path="url(#clip0_2404_956)">
<path id="Vector" d="M19.0325 17.3215H19.9199V18.2189V32.4433L24.046 28.2702V13.1484H9.62695V42.8984L13.753 38.6805V18.2189V17.3215H14.6403H19.0325Z" fill="#262626"/>
<path id="Vector_2" d="M35.2709 33.7434H36.2025V34.6857V39.0831V40.0254H35.2709H17.1251L12.999 44.1985H40.3286V29.5703H27.4624L23.3363 33.7434H35.2709Z" fill="#262626"/>
<path id="Vector_3" d="M49.202 16.6006V17.5429H48.2703H39.3526L35.2266 21.7159H53.328V3.45312L49.202 7.62619V16.6006Z" fill="#262626"/>
<path id="Vector_4" d="M47.8707 4.17308L51.9968 0H31.8545V20.4167L35.9805 16.2436V5.11538V4.17308H36.8679H47.8707Z" fill="#262626"/>
<path id="Vector_5" d="M0 66.9918H0.754438V69.4597H1.19822V66.9918H1.95266V66.6328H0V66.9918Z" fill="#262626"/>
<path id="Vector_6" d="M5.85709 68.8315H6.92213L7.14402 69.4597H7.58781L6.5671 66.6328H6.21212L5.19141 69.4597H5.63519L5.85709 68.8315ZM6.38959 67.2161L6.789 68.4726H5.99022L6.38959 67.2161Z" fill="#262626"/>
<path id="Vector_7" d="M11.8021 67.2161C11.8465 67.1713 11.8908 67.1264 11.9796 67.0815C12.0683 67.0367 12.1571 67.0367 12.2459 67.0367C12.379 67.0367 12.5121 67.0815 12.6009 67.1713C12.6896 67.261 12.734 67.3508 12.7784 67.4405H13.2222C13.1778 67.2161 13.0891 66.9918 12.9115 66.8572C12.734 66.6777 12.5121 66.6328 12.2459 66.6328C12.024 66.6328 11.8465 66.6777 11.7133 66.8123C11.5802 66.902 11.447 67.0367 11.4027 67.1713C11.3583 67.261 11.3139 67.3508 11.3139 67.4405C11.3139 67.5302 11.2695 67.7546 11.2695 68.1136C11.2695 68.4277 11.2695 68.652 11.3139 68.7867C11.3139 68.8315 11.3583 68.8764 11.3583 68.9213C11.3583 68.9661 11.4027 69.011 11.4027 69.0559C11.4914 69.1905 11.5802 69.2802 11.7133 69.4149C11.8465 69.5046 12.024 69.5944 12.2459 69.5944C12.5121 69.5944 12.7784 69.5046 12.9559 69.2802C13.1334 69.1008 13.2222 68.8315 13.2222 68.5623V67.979H12.2459V68.3828H12.8228V68.5174C12.8228 68.6969 12.7784 68.8315 12.6453 68.9661C12.5565 69.1008 12.4234 69.1456 12.2459 69.1456C12.1571 69.1456 12.0683 69.1456 11.9796 69.1008C11.8908 69.0559 11.8465 69.011 11.8021 68.9661C11.7577 68.9213 11.7133 68.8315 11.7133 68.7418C11.7133 68.652 11.6689 68.4726 11.6689 68.1585C11.6689 67.8892 11.6689 67.7097 11.7133 67.5751C11.7133 67.3956 11.7577 67.3059 11.8021 67.2161Z" fill="#262626"/>
<path id="Vector_8" d="M18.2793 66.6328V69.4597H20.0544V69.0559H18.6787V66.6328H18.2793Z" fill="#262626"/>
<path id="Vector_9" d="M24.4457 66.6328H24.002V69.4597H24.4457V66.6328Z" fill="#262626"/>
<path id="Vector_10" d="M30.1694 68.652L28.9268 66.6328H28.5273V69.4597H28.9711V67.4405L30.2138 69.4597H30.6131V66.6328H30.2138V68.652H30.1694Z" fill="#262626"/>
<path id="Vector_11" d="M36.5134 67.0367V66.6328H34.7383V69.4597H36.5134V69.0559H35.1821V68.2033H36.3359V67.8443H35.1821V67.0367H36.5134Z" fill="#262626"/>
<path id="Vector_12" d="M45.3433 69.4597V66.6328H44.8995V67.8443H43.7901V66.6328H43.3906V69.4597H43.7901V68.2033H44.8995V69.4597H45.3433Z" fill="#262626"/>
<path id="Vector_13" d="M51.2439 67.0367V66.6328H49.4688V69.4597H51.2439V69.0559H49.8682V68.2033H51.0664V67.8443H49.8682V67.0367H51.2439Z" fill="#262626"/>
<path id="Vector_14" d="M56.5676 68.2053C56.9226 68.0707 57.1001 67.8015 57.1001 67.4425C57.1001 67.1733 57.0114 66.9938 56.8339 66.8592C56.7007 66.7246 56.4788 66.6797 56.2569 66.6797H55.1475V69.5066H55.5912V68.2951H56.1238L56.7007 69.5066H57.1889L56.5676 68.2053ZM55.5912 67.8464V66.9938H56.2569C56.3901 66.9938 56.4788 67.0387 56.5676 67.0835C56.6563 67.1284 56.7007 67.263 56.7007 67.3976C56.7007 67.5322 56.6563 67.622 56.5676 67.7117C56.4788 67.8015 56.3901 67.8464 56.2125 67.8464H55.5912Z" fill="#262626"/>
<path id="Vector_15" d="M61.0918 69.4597H62.9113V69.0559H61.5356V68.2033H62.6894V67.8443H61.5356V67.0367H62.9113V66.6328H61.0918V69.4597Z" fill="#262626"/>
<path id="Vector_16" d="M4.03788 61.3373C3.81605 61.7861 3.46112 61.9655 2.97309 61.9655C2.48506 61.9655 2.13014 61.8309 1.81957 61.5168C1.55337 61.2027 1.42028 60.7989 1.42028 60.3053C1.42028 59.8117 1.55337 59.4079 1.81957 59.0938C2.08577 58.7796 2.48506 58.645 2.97309 58.645C3.46112 58.645 3.81605 58.8694 4.03788 59.2732H5.72381C5.54634 58.645 5.19141 58.1963 4.65902 57.8373C4.17098 57.4784 3.59422 57.3438 2.97309 57.3438C2.13014 57.3438 1.46464 57.613 0.887882 58.1963C0.31112 58.7796 0.0449219 59.4527 0.0449219 60.3502C0.0449219 61.2027 0.31112 61.9207 0.887882 62.504C1.46464 63.0873 2.1745 63.3566 2.97309 63.3566C3.59422 63.3566 4.17098 63.1771 4.65902 62.863C5.14705 62.504 5.50197 62.0553 5.72381 61.4271H4.03788V61.3373Z" fill="#262626"/>
<path id="Vector_17" d="M15.4393 60.3072C15.4393 59.4546 15.1731 58.7367 14.5964 58.1533C14.0196 57.57 13.3098 57.3008 12.5112 57.3008C11.6682 57.3008 11.0027 57.57 10.426 58.1533C9.8492 58.7367 9.58301 59.4098 9.58301 60.3072C9.58301 61.1598 9.8492 61.8777 10.426 62.461C11.0027 63.0444 11.7126 63.3136 12.5112 63.3136C13.3541 63.3136 14.0196 63.0444 14.5964 62.461C15.1731 61.8777 15.4393 61.1598 15.4393 60.3072ZM13.6203 61.5187C13.3541 61.8328 12.9548 61.9674 12.5112 61.9674C12.0675 61.9674 11.6682 61.8328 11.402 61.5187C11.1358 61.2046 11.0027 60.8008 11.0027 60.3072C11.0027 59.8136 11.1358 59.4098 11.402 59.0957C11.6682 58.7816 12.0675 58.6469 12.5112 58.6469C12.9548 58.6469 13.3541 58.7816 13.6203 59.0957C13.8865 59.4098 14.0196 59.8136 14.0196 60.3072C14.0196 60.8457 13.8865 61.2495 13.6203 61.5187Z" fill="#262626"/>
<path id="Vector_18" d="M26.1761 57.4375H24.5789L22.8931 61.4311L21.2515 57.4375H19.6543V63.226H21.0296V59.9503L22.405 63.226H23.4254L24.7564 59.9503V63.226H26.1761V57.4375Z" fill="#262626"/>
<path id="Vector_19" d="M32.0769 60.9824H32.9643C33.3636 60.9824 33.7185 60.9375 33.9847 60.8029C34.2953 60.6683 34.5171 60.5337 34.6502 60.3542C34.9164 59.9952 35.0495 59.5913 35.0495 59.2324C35.0495 58.7388 34.872 58.3349 34.4727 57.976C34.1178 57.617 33.5854 57.4375 32.9199 57.4375H30.6572V63.2708H32.0769V60.9824ZM32.0769 58.5144H32.9643C33.1861 58.5144 33.3192 58.5593 33.4523 58.6939C33.5854 58.8285 33.6298 59.008 33.6298 59.1875C33.6298 59.4119 33.5854 59.5465 33.4523 59.6811C33.3192 59.8157 33.1417 59.8606 32.9643 59.8606H32.0769V58.5144Z" fill="#262626"/>
<path id="Vector_20" d="M42.3693 57.3906H40.6391L38.6426 63.224H40.151L40.4616 62.2368H42.5468L42.8574 63.224H44.3658L42.3693 57.3906ZM40.8165 61.2047L41.482 59.1406L42.1475 61.2047H40.8165Z" fill="#262626"/>
<path id="Vector_21" d="M53.5059 63.224V57.3906H52.0861V61.0701L49.7347 57.3906H48.3594V63.224H49.7347V59.5893L52.0861 63.224H53.5059Z" fill="#262626"/>
<path id="Vector_22" d="M60.2493 60.0401L59.1402 57.4375H57.543L59.5394 61.3862V63.226H60.9148V61.3862L62.9113 57.4375H61.3141L60.2493 60.0401Z" fill="#262626"/>
</g>
<defs>
<clipPath id="clip0_2404_956">
<rect width="63" height="70" fill="white"/>
</clipPath>
</defs>
</svg>
