<svg width="70" height="70" viewBox="0 0 70 70" fill="none" xmlns="http://www.w3.org/2000/svg">
<g id="Client 2" clip-path="url(#clip0_2404_979)">
<path id="Vector" d="M20.917 48.6458L19.2187 45.4801L5.71579 20.2891H2.31934L17.5205 48.6458H20.917Z" fill="#262626"/>
<path id="Vector_2" d="M34.5863 48.6458L32.8467 45.4801L31.1484 42.3145L29.4502 39.1043L27.752 35.9387L26.0538 32.7731L19.3437 20.2891H15.9473L24.3555 35.9387L26.0538 39.1043L27.752 42.3145L29.4502 45.4801L31.1484 48.6458H34.5863Z" fill="#262626"/>
<path id="Vector_3" d="M39.6811 45.4801L37.9828 42.3145L36.2846 39.1043L34.5864 35.9387L32.8467 32.7731L31.1485 29.6075L29.4503 26.3973L26.1781 20.2891H22.7402L27.7521 29.6075L31.1485 35.9387L32.8467 39.1043L34.5864 42.3145L36.2846 45.4801L37.9828 48.6458H41.3793L39.6811 45.4801Z" fill="#262626"/>
<path id="Vector_4" d="M47.0119 0H43.6155L31.1895 23.1847L32.8877 26.3949L47.0119 0Z" fill="#262626"/>
<path id="Vector_5" d="M24.3549 48.6458H27.7514L26.0531 45.4801L24.3549 42.3145L22.6567 39.1043L12.5088 20.2891H9.1123L20.917 42.3145L22.6567 45.4801L24.3549 48.6458Z" fill="#262626"/>
<path id="Vector_6" d="M36.2842 32.7261L53.8463 0H50.4498L34.5859 29.5605V29.6051L36.2842 32.7261Z" fill="#262626"/>
<path id="Vector_7" d="M39.6806 39.1019L60.6806 0H57.2428L37.9824 35.8917L38.0238 35.9363L39.6806 39.1019Z" fill="#262626"/>
<path id="Vector_8" d="M67.4732 0H64.0767L41.4199 42.2675V42.3121L43.1181 45.4331L67.4732 0Z" fill="#262626"/>
<path id="Vector_9" d="M4.47337 61.9295C4.14201 62.2416 3.68639 62.4645 3.18935 62.4645C2.15385 62.4645 1.28402 61.5728 1.28402 60.4136C1.28402 59.2989 2.15385 58.3626 3.18935 58.3626C3.68639 58.3626 4.14201 58.5856 4.47337 58.8977L5.38462 57.9168C4.80473 57.3372 4.05917 56.9805 3.18935 56.9805C1.4497 56.9805 0 58.4964 0 60.4136C0 62.3308 1.40828 63.8467 3.18935 63.8467C4.01775 63.8467 4.80473 63.49 5.38462 62.9104L4.47337 61.9295Z" fill="#262626"/>
<path id="Vector_10" d="M13.7518 56.9805C12.0122 56.9805 10.5625 58.4964 10.5625 60.4136C10.5625 62.3308 11.9708 63.8467 13.7518 63.8467C15.4915 63.8467 16.9412 62.3308 16.9412 60.4136C16.9412 58.4964 15.4915 56.9805 13.7518 56.9805ZM13.7518 62.4645C12.7163 62.4645 11.8465 61.5282 11.8465 60.4136C11.8465 59.2989 12.7163 58.3626 13.7518 58.3626C14.7874 58.3626 15.6572 59.2989 15.6572 60.4136C15.6572 61.5728 14.7874 62.4645 13.7518 62.4645Z" fill="#262626"/>
<path id="Vector_11" d="M25.764 62.0187L23.9001 56.9805H22.5332V63.8467H23.8172V60.4136L25.1013 63.8467H26.4681L27.7107 60.4136V63.8467H28.9947V56.9805H27.6279L25.764 62.0187Z" fill="#262626"/>
<path id="Vector_12" d="M36.367 56.9805H34.5859V63.8021H35.87V61.0824H36.4084C37.4439 61.0824 38.3137 60.1461 38.3137 59.0314C38.2723 57.9168 37.4439 56.9805 36.367 56.9805ZM36.367 59.7448H35.87V58.3626H36.367C36.6984 58.3626 36.9883 58.6747 36.9883 59.0314C37.0297 59.4327 36.7398 59.7448 36.367 59.7448Z" fill="#262626"/>
<path id="Vector_13" d="M45.3553 56.9805L43.0771 63.8021H44.444L45.1067 61.8849H47.0535L47.7162 63.8021H49.0831L46.805 56.9805H45.3553ZM45.5209 60.5473L46.018 58.9868L46.5564 60.5473H45.5209Z" fill="#262626"/>
<path id="Vector_14" d="M59.7272 56.9805H58.4845V61.5728L55.9165 56.9805H54.4668V63.8467H55.7094V59.2989L58.2774 63.8467H59.7272V56.9805Z" fill="#262626"/>
<path id="Vector_15" d="M68.0947 63.8467V60.5919L69.7515 56.9805H68.3432L67.4734 58.8977L66.6036 56.9805H65.1953L66.8521 60.5919V63.8467H68.0947Z" fill="#262626"/>
<path id="Vector_16" d="M0 67.1458H0.745562V69.6872H1.15976V67.1458H1.90533V66.7891H0V67.1458Z" fill="#262626"/>
<path id="Vector_17" d="M4.84562 66.7891L3.85156 69.6872H4.26574L4.47284 69.0184H5.50835L5.71545 69.6872H6.12965L5.13557 66.7891H4.84562ZM4.63852 68.6171L5.01131 67.3687L5.38409 68.6171H4.63852Z" fill="#262626"/>
<path id="Vector_18" d="M9.52729 68.4856H10.0657V68.6194C10.0657 68.7977 10.0243 68.9315 9.90007 69.0652C9.81723 69.199 9.65155 69.2436 9.52729 69.2436C9.44445 69.2436 9.36161 69.2436 9.27877 69.199C9.19593 69.1544 9.1545 69.1098 9.11308 69.0652C9.07166 69.0207 9.03024 68.9315 8.98882 68.8423C8.98882 68.7531 8.9474 68.5302 8.9474 68.2627C8.9474 67.9952 8.9474 67.7722 8.98882 67.6831C8.98882 67.5939 9.03024 67.5047 9.11308 67.4601C9.1545 67.4156 9.19593 67.371 9.27877 67.3264C9.36161 67.2818 9.44445 67.2818 9.52729 67.2818C9.65155 67.2818 9.77581 67.3264 9.85865 67.4156C9.94149 67.5047 10.0243 67.5939 10.0243 67.7277H10.4385C10.3971 67.5047 10.2728 67.2818 10.1486 67.1035C9.98291 66.9251 9.77581 66.8359 9.52729 66.8359C9.32019 66.8359 9.15451 66.8805 8.98882 67.0143C8.86456 67.1035 8.7403 67.2372 8.65746 67.371C8.61604 67.4601 8.57462 67.5493 8.57462 67.6385C8.57462 67.7722 8.5332 67.9952 8.5332 68.3073C8.5332 68.6194 8.5332 68.8423 8.57462 68.9761C8.57462 69.0207 8.61604 69.1098 8.61604 69.1098C8.61604 69.1544 8.65746 69.199 8.65746 69.2436C8.7403 69.3773 8.82314 69.5111 8.98882 69.6003C9.11308 69.6894 9.32019 69.7786 9.52729 69.7786C9.81723 69.7786 10.0243 69.6894 10.19 69.4665C10.3557 69.2882 10.4799 69.0207 10.4799 68.7531V68.1735H9.52729V68.4856Z" fill="#262626"/>
<path id="Vector_19" d="M13.6681 66.7891H13.2539V69.6872H14.9521V69.2413H13.6681V66.7891Z" fill="#262626"/>
<path id="Vector_20" d="M18.0177 66.7891H17.6035V69.6872H18.0177V66.7891Z" fill="#262626"/>
<path id="Vector_21" d="M22.449 68.84L21.2478 66.7891H20.875V69.6872H21.2478V67.5916H21.2892L22.4904 69.6872H22.8632V66.7891H22.449V68.84Z" fill="#262626"/>
<path id="Vector_22" d="M25.7227 69.6872H27.4209V69.2413H26.1369V68.3942H27.2552V67.9929H26.1369V67.1903H27.4209V66.7891H25.7227V69.6872Z" fill="#262626"/>
<path id="Vector_23" d="M34.1308 68.4856H34.6693V68.6194C34.6693 68.7977 34.6278 68.9315 34.5036 69.0652C34.4207 69.199 34.2551 69.2436 34.1308 69.2436C34.048 69.2436 33.9651 69.2436 33.8823 69.199C33.7994 69.1544 33.758 69.1098 33.7166 69.0652C33.6752 69.0207 33.6338 68.9315 33.5923 68.8423C33.5923 68.7531 33.5509 68.5302 33.5509 68.2627C33.5509 67.9952 33.5509 67.7722 33.5923 67.6831C33.5923 67.5939 33.6338 67.5047 33.7166 67.4601C33.758 67.4156 33.7994 67.371 33.8823 67.3264C33.9651 67.2818 34.048 67.2818 34.1308 67.2818C34.2551 67.2818 34.3793 67.3264 34.4622 67.4156C34.545 67.5047 34.6278 67.5939 34.6278 67.7277H35.042C35.0006 67.5047 34.8764 67.2818 34.7521 67.1035C34.5864 66.9251 34.3793 66.8359 34.1308 66.8359C33.9237 66.8359 33.758 66.8805 33.5923 67.0143C33.4681 67.1035 33.3438 67.2372 33.261 67.371C33.2196 67.4601 33.1781 67.5493 33.1781 67.6385C33.1781 67.7722 33.1367 67.9952 33.1367 68.3073C33.1367 68.6194 33.1367 68.8423 33.1781 68.9761C33.1781 69.0207 33.2196 69.1098 33.2196 69.1098C33.2196 69.1544 33.261 69.199 33.261 69.2436C33.3438 69.3773 33.4267 69.5111 33.5923 69.6003C33.7166 69.6894 33.9237 69.7786 34.1308 69.7786C34.4207 69.7786 34.6278 69.6894 34.7935 69.4665C34.9592 69.2882 35.0835 69.0207 35.0835 68.7531V68.1735H34.1308V68.4856Z" fill="#262626"/>
<path id="Vector_24" d="M39.5569 67.2811C39.474 67.1474 39.3912 67.0136 39.2669 66.9244C39.1427 66.8353 38.9356 66.7461 38.7285 66.7461C38.5214 66.7461 38.3557 66.7907 38.19 66.9244C38.0657 67.0136 37.9415 67.1474 37.8586 67.2811C37.8172 67.3703 37.7758 67.4595 37.7758 67.5486C37.7758 67.6824 37.7344 67.9053 37.7344 68.2174C37.7344 68.5295 37.7344 68.7525 37.7758 68.8862C37.7758 68.9308 37.8172 69.02 37.8172 69.02C37.8172 69.0646 37.8586 69.1091 37.8586 69.1537C37.9415 69.2875 38.0243 69.4213 38.19 69.5104C38.3143 69.5996 38.5214 69.6888 38.7285 69.6888C38.9356 69.6888 39.1012 69.6442 39.2669 69.5104C39.3912 69.4213 39.5154 69.2875 39.5569 69.1537C39.5983 69.0646 39.6397 68.9754 39.6397 68.8862C39.6397 68.7525 39.6811 68.5295 39.6811 68.2174C39.6811 67.8607 39.6811 67.6378 39.6397 67.5486C39.6397 67.4149 39.5983 67.3257 39.5569 67.2811ZM39.2255 68.797C39.2255 68.8862 39.1841 68.9754 39.1012 69.02C39.0598 69.0646 39.0184 69.1091 38.9356 69.1537C38.8527 69.1983 38.7699 69.1983 38.687 69.1983C38.6042 69.1983 38.5214 69.1983 38.4385 69.1537C38.3557 69.1091 38.3143 69.0646 38.2728 69.02C38.2314 68.9754 38.19 68.8862 38.1486 68.797C38.1486 68.7079 38.1072 68.4849 38.1072 68.2174C38.1072 67.9499 38.1072 67.727 38.1486 67.6378C38.1486 67.5486 38.19 67.4595 38.2728 67.4149C38.3143 67.3703 38.3557 67.3257 38.4385 67.2811C38.5214 67.2365 38.6042 67.2365 38.687 67.2365C38.7699 67.2365 38.8527 67.2811 38.9356 67.2811C39.0184 67.3257 39.0598 67.3703 39.1012 67.4149C39.1427 67.4595 39.1841 67.5486 39.2255 67.6378C39.2255 67.727 39.2669 67.9499 39.2669 68.2174C39.2669 68.4849 39.2669 68.7079 39.2255 68.797Z" fill="#262626"/>
<path id="Vector_25" d="M42.4141 69.6872H44.1123V69.2413H42.8283V68.3942H43.9466V67.9929H42.8283V67.1903H44.1123V66.7891H42.4141V69.6872Z" fill="#262626"/>
<path id="Vector_26" d="M47.7988 68.0375C47.6746 68.0375 47.5503 67.9929 47.5089 67.9929C47.3846 67.9483 47.2604 67.9037 47.219 67.8591C47.1775 67.77 47.1361 67.7254 47.1361 67.6362C47.1361 67.5024 47.1775 67.4133 47.2604 67.3241C47.3432 67.2349 47.4675 67.2349 47.5917 67.2349C47.8403 67.2349 48.0474 67.3241 48.2545 67.4579L48.4616 67.1012C48.213 66.9228 47.9231 66.7891 47.5917 66.7891C47.3018 66.7891 47.0947 66.8782 46.929 67.012C46.7633 67.1458 46.6805 67.3687 46.6805 67.6362C46.6805 67.8591 46.7633 68.0375 46.8876 68.1712C47.0119 68.305 47.1775 68.3942 47.4261 68.4387C47.5503 68.4387 47.6746 68.4833 47.7988 68.4833C48.0474 68.5279 48.1716 68.6617 48.1302 68.8846C48.1302 69.1521 47.9645 69.2859 47.5917 69.2859C47.3018 69.2859 47.0533 69.1967 46.8462 69.0184L46.5977 69.3305C46.8876 69.598 47.219 69.7317 47.6332 69.7317C48.2545 69.7317 48.5444 69.4642 48.5858 68.8846C48.5858 68.6617 48.5444 68.4833 48.4201 68.3496C48.213 68.1712 48.0474 68.0375 47.7988 68.0375Z" fill="#262626"/>
<path id="Vector_27" d="M55.8759 67.9929H54.799V66.7891H54.3848V69.6872H54.799V68.3942H55.8759V69.6872H56.2901V66.7891H55.8759V67.9929Z" fill="#262626"/>
<path id="Vector_28" d="M59.1064 69.6872H60.8461V69.2413H59.5206V68.3942H60.639V67.9929H59.5206V67.1903H60.8461V66.7891H59.1064V69.6872Z" fill="#262626"/>
<path id="Vector_29" d="M65.361 67.5916C65.361 67.3241 65.2781 67.1012 65.1125 66.9674C64.9882 66.8337 64.7811 66.7891 64.574 66.7891H63.4971V69.6872H63.9113V68.4387H64.4497L64.9882 69.6872H65.4852L64.8639 68.3942C65.1953 68.2604 65.361 67.9929 65.361 67.5916ZM63.9113 68.0375V67.1458H64.5326C64.6568 67.1458 64.7811 67.1903 64.8225 67.2349C64.9054 67.3241 64.9468 67.4133 64.9468 67.547C64.9468 67.6808 64.9054 67.77 64.8225 67.8591C64.7397 67.9483 64.6154 67.9929 64.4912 67.9929H63.9113V68.0375Z" fill="#262626"/>
<path id="Vector_30" d="M68.0527 69.6872H69.7924V69.2413H68.4669V68.3942H69.5853V67.9929H68.4669V67.1903H69.7924V66.7891H68.0527V69.6872Z" fill="#262626"/>
</g>
<defs>
<clipPath id="clip0_2404_979">
<rect width="70" height="70" fill="white"/>
</clipPath>
</defs>
</svg>
