<svg width="71" height="70" viewBox="0 0 71 70" fill="none" xmlns="http://www.w3.org/2000/svg">
<g id="Client 4" clip-path="url(#clip0_2404_1033)">
<path id="Vector" d="M6.88441 61.7562V61.7043L5.77914 61.4451V61.4969C5.62125 62.0673 5.41072 62.534 5.0423 62.8451C4.67388 63.1562 4.2002 63.3117 3.67388 63.3117C3.25283 63.3117 2.83177 63.208 2.46335 63.0006C2.09493 62.7932 1.83177 62.4303 1.62125 62.0154C1.41072 61.5488 1.35809 61.0303 1.35809 60.4599C1.35809 59.9932 1.41072 59.5266 1.56862 59.1117C1.72651 58.6969 1.98967 58.334 2.35809 58.0747C2.72651 57.8155 3.2002 57.7117 3.77914 57.7117C4.25283 57.7117 4.67388 57.8155 4.98967 58.0747C5.30546 58.2821 5.56862 58.6969 5.72651 59.1636V59.2154L6.83177 58.9562V58.9043C6.62125 58.2303 6.25283 57.7117 5.72651 57.2969C5.2002 56.934 4.56862 56.7266 3.83177 56.7266C3.14756 56.7266 2.56862 56.8821 1.98967 57.1414C1.46335 57.4525 0.989669 57.8673 0.673881 58.4377C0.358091 59.008 0.200195 59.6821 0.200195 60.408C0.200195 61.0821 0.35809 61.7562 0.621247 62.3784C0.884406 63.0006 1.30546 63.4673 1.77914 63.7784C2.30546 64.0895 2.93704 64.2451 3.77914 64.2451C4.56862 64.2451 5.25283 64.0377 5.77914 63.6229C6.30546 63.208 6.67388 62.5858 6.88441 61.7562Z" fill="#262626"/>
<path id="Vector_2" d="M15.8837 57.1385C15.3048 56.8274 14.6733 56.6719 13.9891 56.6719C12.9364 56.6719 12.0417 57.0348 11.3575 57.7089C10.6733 58.383 10.3574 59.3682 10.3574 60.5608C10.3574 61.183 10.5154 61.8052 10.7785 62.3756C11.0417 62.9459 11.5153 63.4126 12.0416 63.7237C12.6206 64.0867 13.2522 64.2422 13.9364 64.2422C14.6206 64.2422 15.1996 64.0867 15.7785 63.7756C16.3575 63.4645 16.7785 63.0497 17.0943 62.4274C17.4101 61.8571 17.568 61.183 17.568 60.4571C17.568 59.7311 17.4101 59.0571 17.1469 58.4867C16.8838 57.9163 16.4627 57.4496 15.8837 57.1385ZM15.7785 62.5311C15.3048 62.9978 14.7258 63.2571 13.9891 63.2571C13.3048 63.2571 12.6732 62.9978 12.1995 62.5311C11.7258 62.0645 11.5153 61.3904 11.5153 60.5089C11.5153 59.4719 11.7785 58.6941 12.2522 58.2274C12.7259 57.7608 13.3575 57.5534 13.9891 57.5534C14.4627 57.5534 14.8838 57.6571 15.3048 57.9163C15.6733 58.1237 15.9891 58.4867 16.1996 58.9015C16.4101 59.3163 16.5154 59.8348 16.5154 60.4052C16.4627 61.3385 16.2522 62.0645 15.7785 62.5311Z" fill="#262626"/>
<path id="Vector_3" d="M28.7265 56.8828H27.6738V64.2458H28.7265V56.8828Z" fill="#262626"/>
<path id="Vector_4" d="M25.148 62.8976L24.8322 62.0161L23.0427 56.8828H22.9375V59.5273L24.569 64.1939H25.5691L27.2532 59.5273V56.9347L25.4638 61.9124C25.3586 62.3273 25.2532 62.6902 25.148 62.8976Z" fill="#262626"/>
<path id="Vector_5" d="M22.6209 56.8828H21.5156V64.2458H22.6209V56.8828Z" fill="#262626"/>
<path id="Vector_6" d="M33.7264 56.8828H32.6211V64.2458H33.7264V56.8828Z" fill="#262626"/>
<path id="Vector_7" d="M37.5693 57.2976C37.3062 57.1421 36.9904 56.9865 36.622 56.9347C36.3588 56.8828 35.9904 56.8828 35.4641 56.8828H34.0956V57.868H35.5167C35.9378 57.868 36.2535 57.868 36.4114 57.9198C36.6745 57.9717 36.8324 58.1273 36.9903 58.3347C37.1482 58.5421 37.2009 58.8013 37.2009 59.0606C37.2009 59.4754 37.0957 59.7347 36.8325 59.9939C36.5693 60.2013 36.1483 60.305 35.5167 60.305H34.043V61.2902H35.5167C36.5693 61.2902 37.3588 61.0828 37.7272 60.6161C38.1482 60.2013 38.3588 59.631 38.3588 59.0087C38.3588 58.6458 38.3062 58.2828 38.1483 57.9717C38.043 57.7124 37.8325 57.505 37.5693 57.2976Z" fill="#262626"/>
<path id="Vector_8" d="M46.3583 56.8828H45.2004L42.3057 64.2458H43.4636L43.7793 63.3643L44.6215 61.1347L44.7793 60.668L45.4109 59.0606C45.5688 58.6976 45.6741 58.3347 45.7267 57.9717C45.832 58.3347 45.9899 58.7495 46.2004 59.2161L46.9372 61.1347H45.0425L44.6741 62.0161H47.253L48.1478 64.1939H49.4109L46.3583 56.8828Z" fill="#262626"/>
<path id="Vector_9" d="M54.6738 59.2662L57.7265 63.6736V61.8069L54.6738 57.3477V59.2662Z" fill="#262626"/>
<path id="Vector_10" d="M58.1475 62.431V62.3791V64.2458H59.2527V56.8828H58.1475V62.431Z" fill="#262626"/>
<path id="Vector_11" d="M54.3056 56.8828H53.2529V64.2458H54.3056V56.8828Z" fill="#262626"/>
<path id="Vector_12" d="M67.4114 59.0595C67.1482 59.4743 66.8851 59.8891 66.6746 60.2521L66.043 61.1854V64.2966H67.1482V61.1854L70.2009 56.9336H68.8851L67.4114 59.0595Z" fill="#262626"/>
<path id="Vector_13" d="M65.9368 59.1124L64.4631 56.8828H63.0947L65.7789 60.7717L66.4105 59.8384L65.9368 59.1124Z" fill="#262626"/>
<path id="Vector_14" d="M0.200195 67.5643H0.989669V69.8458H1.56862V67.5643H2.41072V67.0977H0.200195V67.5643Z" fill="#262626"/>
<path id="Vector_15" d="M7.72718 67.0977H7.14823L6.04297 69.8458H6.62192L6.83244 69.2236H7.93771L8.20086 69.8458H8.83244L7.72718 67.0977ZM7.04297 68.7569L7.41139 67.7199L7.77981 68.7569H7.04297Z" fill="#262626"/>
<path id="Vector_16" d="M14.042 68.8588H14.6736V69.2218C14.4631 69.3774 14.2526 69.4292 13.9894 69.4292C13.7263 69.4292 13.5157 69.3255 13.4105 69.17C13.2526 69.0144 13.1999 68.7551 13.1999 68.444C13.1999 67.8218 13.4631 67.5107 13.9894 67.5107C14.3052 67.5107 14.5157 67.6663 14.621 67.9255L15.1999 67.8218C15.0947 67.3033 14.6736 66.9922 13.9894 66.9922C13.621 66.9922 13.2526 67.0959 12.9894 67.3551C12.7263 67.6144 12.5684 67.9255 12.5684 68.3922C12.5684 68.807 12.6736 69.17 12.9368 69.4292C13.1999 69.6885 13.5157 69.844 13.9894 69.844C14.4631 69.844 14.8841 69.6885 15.1999 69.4292V68.3403H13.9894V68.8588H14.042Z" fill="#262626"/>
<path id="Vector_17" d="M21.4637 67.0977H20.8848V69.8458H22.8322V69.3791H21.4637V67.0977Z" fill="#262626"/>
<path id="Vector_18" d="M27.411 67.0977H26.832V69.8458H27.411V67.0977Z" fill="#262626"/>
<path id="Vector_19" d="M33.1998 68.9643L32.0419 67.0977H31.5156V69.8458H32.0419V68.0828L33.1472 69.8458H33.7262V67.0977H33.1998V68.9643Z" fill="#262626"/>
<path id="Vector_20" d="M38.4637 68.6532H39.8321V68.1865H38.4637V67.5643H39.9374V67.0977H37.8848V69.8458H39.99V69.3791H38.4637V68.6532Z" fill="#262626"/>
<path id="Vector_21" d="M50.7789 68.1865H49.6737V67.0977H49.0947V69.8458H49.6737V68.6532H50.7789V69.8458H51.3579V67.0977H50.7789V68.1865Z" fill="#262626"/>
<path id="Vector_22" d="M56.0419 68.6532H57.463V68.1865H56.0419V67.5643H57.5683V67.0977H55.5156V69.8458H57.6209V69.3791H56.0419V68.6532Z" fill="#262626"/>
<path id="Vector_23" d="M63.2 68.6532C63.6737 68.6014 63.9369 68.3421 63.9369 67.8754C63.9369 67.5643 63.8316 67.3569 63.6737 67.2532C63.5158 67.1495 63.2 67.0977 62.8316 67.0977H61.6211V69.8458H62.2V68.7051H62.3053C62.4632 68.7051 62.5685 68.7051 62.6737 68.7569C62.7264 68.8088 62.8316 68.8606 62.8843 68.9643L63.5158 69.8458H64.2L63.8843 69.3273C63.6211 68.9643 63.4106 68.7569 63.2 68.6532ZM62.6737 68.2903H62.2527V67.6162H62.6737C62.9895 67.6162 63.1474 67.6162 63.2527 67.668C63.3579 67.7199 63.3579 67.8236 63.3579 67.9273C63.3579 68.0828 63.3053 68.1866 63.2 68.2384C63.1474 68.2384 62.9369 68.2903 62.6737 68.2903Z" fill="#262626"/>
<path id="Vector_24" d="M68.6219 68.6532H70.043V68.1865H68.6219V67.5643H70.1482V67.0977H68.043V69.8458H70.2009V69.3791H68.6219V68.6532Z" fill="#262626"/>
<path id="Vector_25" d="M32.7784 40.806V41.8949H32.7258V41.9467H31.6206H17.7258H16.41L16.6732 40.6504C16.7258 40.443 16.7785 40.1837 16.8311 39.9763C16.8837 39.7689 16.9363 39.5615 16.9889 39.3541L17.0416 39.2504L17.0943 39.1467C17.1469 38.9911 17.1995 38.8356 17.2521 38.68C17.3047 38.5763 17.3574 38.4208 17.3574 38.3171C17.4101 38.1615 17.4626 38.0578 17.5153 37.9023C17.5679 37.7467 17.6732 37.5393 17.7258 37.3837C17.7785 37.2282 17.8311 37.0726 17.9364 36.9171C17.9364 36.8652 17.9889 36.8134 18.0416 36.7097C18.0942 36.5541 18.1468 36.3986 18.2521 36.2948C18.3048 36.243 18.3048 36.1911 18.3574 36.1393C18.4101 35.9837 18.5153 35.88 18.5679 35.7245C18.5679 35.6726 18.6206 35.6208 18.6732 35.5171C18.7785 35.3615 18.8837 35.206 18.9364 35.0504C19.0416 34.8948 19.0943 34.7393 19.1995 34.5837L19.2522 34.5319C19.3048 34.48 19.3047 34.4282 19.3574 34.3763L19.4101 34.3245C19.5153 34.1689 19.6206 34.0134 19.7258 33.8578C19.8311 33.7023 19.9889 33.4949 20.0942 33.3393C20.1995 33.2356 20.3047 33.08 20.41 32.9245L20.4627 32.8726C20.5153 32.8208 20.5679 32.7689 20.5679 32.7171C20.6732 32.5615 20.7784 32.4578 20.8837 32.3023C20.9364 32.2504 20.9363 32.2504 20.9363 32.2504C21.0416 32.0948 21.1995 31.9911 21.3048 31.8356C21.3574 31.7837 21.3574 31.7319 21.41 31.7319C21.5153 31.5763 21.6732 31.4726 21.8311 31.2652C23.1995 29.9171 24.7258 28.8282 26.3574 27.9467H18.2521C16.1468 30.0726 14.4626 32.5097 13.2521 35.2578C11.9889 38.1615 11.3574 41.2208 11.3574 44.3837V46.4578V46.8208H37.5679V26.8578V25.7689V25.1467V21.88V6.22078V5.13189H37.6206H38.7258H52.6732H53.989L53.7258 6.42818C52.989 10.006 51.1995 13.2726 48.5679 15.8652C47.989 16.4356 47.4101 16.9023 46.8311 17.3689H53.7258C55.0943 15.7097 56.2522 13.843 57.0943 11.8208C58.3574 8.91707 58.989 5.85781 58.989 2.69485V0.257812H32.7784V40.806Z" fill="#262626"/>
<path id="Vector_26" d="M16.2531 20.9481V19.8593V6.22222V4.92593L17.5689 5.18518C21.2005 5.91111 24.5689 7.67407 27.2005 10.2667C27.3583 10.4222 27.5689 10.6296 27.7268 10.837V4.35556C26.3057 3.31852 24.7268 2.48889 23.0952 1.81481C20.1479 0.57037 17.0426 0 13.8321 0H11.3584V24.3704H27.7268V20.9481H17.3584H16.2531Z" fill="#262626"/>
<path id="Vector_27" d="M53.7264 24.3714V25.4603V40.5492V41.8455L52.4106 41.5863C48.779 40.8603 45.4631 39.0974 42.7789 36.5048C42.7263 36.4529 42.6737 36.4011 42.6211 36.3492V42.6233C43.9369 43.5048 45.3579 44.2826 46.8843 44.9048C49.8316 46.1492 52.9369 46.7196 56.1475 46.7196H58.6211V20.9492H42.6737V24.3714H52.6737H53.7264Z" fill="#262626"/>
</g>
<defs>
<clipPath id="clip0_2404_1033">
<rect width="70" height="70" fill="white" transform="translate(0.200195)"/>
</clipPath>
</defs>
</svg>
