<svg width="61" height="70" viewBox="0 0 61 70" fill="none" xmlns="http://www.w3.org/2000/svg">
<g id="Client 5" clip-path="url(#clip0_2404_1061)">
<path id="Vector" d="M0.961503 69.7741H1.36455V67.4105H2.08107V67.0469H0.200195V67.4105H0.961503V69.7741Z" fill="#262626"/>
<path id="Vector_2" d="M6.46848 67.0469H6.11022L5.125 69.7287H5.57283L5.79674 69.1378H6.78196L7.00588 69.7287H7.40892L6.46848 67.0469ZM5.93109 68.7741L6.33414 67.5923L6.73718 68.7741H5.93109Z" fill="#262626"/>
<path id="Vector_3" d="M11.4396 67.6378C11.4844 67.5923 11.5292 67.5469 11.6187 67.5014C11.7083 67.456 11.7531 67.456 11.8426 67.456C11.977 67.456 12.0666 67.5014 12.1562 67.5469C12.2457 67.6378 12.2905 67.7287 12.3353 67.8196H12.7831C12.7383 67.5923 12.6488 67.4105 12.4696 67.2741C12.2905 67.1378 12.1113 67.0469 11.8426 67.0469C11.6187 67.0469 11.4396 67.0923 11.3052 67.1832C11.1709 67.2741 11.0814 67.4105 10.9918 67.5014C10.947 67.5469 10.9023 67.6378 10.9023 67.7742C10.9023 67.8651 10.8574 68.0923 10.8574 68.4105C10.8574 68.7287 10.8575 68.9105 10.9023 69.0469C10.9023 69.0923 10.9022 69.1378 10.947 69.1832C10.947 69.2287 10.9918 69.2741 10.9918 69.3196C11.0366 69.456 11.1709 69.5469 11.3052 69.6378C11.4396 69.7287 11.6187 69.7741 11.8426 69.7741C12.1113 69.7741 12.3353 69.6832 12.5144 69.5014C12.6935 69.3196 12.7831 69.0923 12.7831 68.8196V68.2741H11.8426V68.6832H12.3801V68.8196C12.3801 69.0014 12.3353 69.1378 12.2457 69.2287C12.1562 69.3196 12.0218 69.4105 11.8426 69.4105C11.7531 69.4105 11.6635 69.4105 11.6187 69.3651C11.5292 69.3196 11.4844 69.2741 11.4396 69.2287C11.3949 69.1832 11.3501 69.0923 11.3501 69.0014C11.3501 68.9105 11.3052 68.7287 11.3052 68.456C11.3052 68.1832 11.3053 68.0014 11.3501 67.9105C11.3501 67.7741 11.3949 67.6832 11.4396 67.6378Z" fill="#262626"/>
<path id="Vector_4" d="M17.8418 67.0469V69.7741H19.5435V69.3651H18.2448V67.0469H17.8418Z" fill="#262626"/>
<path id="Vector_5" d="M23.6628 67.0469H23.2598V69.7287H23.6628V67.0469Z" fill="#262626"/>
<path id="Vector_6" d="M27.6035 67.0469V69.7741H28.0066V67.8196L29.1709 69.7741H29.574V67.0469H29.1709V68.956L27.9618 67.0469H27.6035Z" fill="#262626"/>
<path id="Vector_7" d="M35.1706 67.456V67.0469H33.5137V69.7741H35.1706V69.3651H33.8719V68.5923H34.9915V68.2287H33.8719V67.456H35.1706Z" fill="#262626"/>
<path id="Vector_8" d="M43.3203 69.7741V67.0469H42.9173V68.2287H41.8425V67.0469H41.4395V69.7741H41.8425V68.5923H42.9173V69.7741H43.3203Z" fill="#262626"/>
<path id="Vector_9" d="M48.9166 67.456V67.0469H47.2148V69.7741H48.9166V69.3651H47.6179V68.5923H48.7375V68.2287H47.6179V67.456H48.9166Z" fill="#262626"/>
<path id="Vector_10" d="M53.9764 68.5469C54.3347 68.4105 54.469 68.1832 54.5138 67.8196C54.5138 67.5923 54.4243 67.3651 54.2451 67.2287C54.1108 67.0923 53.9317 67.0469 53.7077 67.0469H52.6777V69.7287H53.0808V68.5923H53.5734L54.1108 69.7287H54.6034L53.9764 68.5469ZM53.036 68.2287V67.4105H53.663C53.7973 67.4105 53.8869 67.456 53.9764 67.5014C54.066 67.5469 54.1108 67.6832 54.1108 67.8196C54.1108 67.956 54.066 68.0469 53.9764 68.1378C53.8869 68.2287 53.7973 68.2741 53.6182 68.2741H53.036V68.2287Z" fill="#262626"/>
<path id="Vector_11" d="M59.9771 67.456V67.0469H58.2754V69.7741H59.9771V69.3651H58.6784V68.5923H59.798V68.2287H58.6784V67.456H59.9771Z" fill="#262626"/>
<path id="Vector_12" d="M3.02109 63.8651C3.64796 63.8651 4.18527 63.6832 4.63303 63.3651C5.12557 63.0469 5.439 62.5923 5.61811 62.0014H4.00617C3.78228 62.4105 3.46885 62.5923 3.02109 62.5923C2.57333 62.5923 2.21512 62.456 1.94646 62.1378C1.67781 61.8651 1.54348 61.456 1.54348 60.956C1.54348 60.456 1.67781 60.0923 1.94646 59.7741C2.21512 59.5014 2.57333 59.3196 3.02109 59.3196C3.46885 59.3196 3.82706 59.5014 4.00617 59.9105H5.61811C5.439 59.3196 5.08079 58.8651 4.63303 58.5469C4.14049 58.2287 3.60318 58.0469 3.02109 58.0469C2.21512 58.0469 1.58825 58.3196 1.00617 58.8651C0.468852 59.4105 0.200195 60.0923 0.200195 60.9105C0.200195 61.7287 0.468852 62.4105 1.00617 62.956C1.58825 63.6378 2.2599 63.8651 3.02109 63.8651Z" fill="#262626"/>
<path id="Vector_13" d="M14.8861 61.0472C14.8861 60.229 14.6174 59.5472 14.0801 59.0018C13.5428 58.4563 12.8712 58.1836 12.11 58.1836C11.304 58.1836 10.6772 58.4563 10.0951 59.0018C9.55776 59.5472 9.28906 60.229 9.28906 61.0472C9.28906 61.8654 9.55776 62.5472 10.0951 63.0927C10.6324 63.6381 11.304 63.9109 12.11 63.9109C12.916 63.9109 13.5428 63.6381 14.0801 63.0927C14.6174 62.5472 14.8861 61.8654 14.8861 61.0472ZM13.1399 62.229C12.8712 62.5018 12.5129 62.6836 12.0652 62.6836C11.6174 62.6836 11.2593 62.5472 10.9906 62.229C10.7219 61.9563 10.5876 61.5472 10.5876 61.0472C10.5876 60.5472 10.7219 60.1836 10.9906 59.8654C11.2593 59.5927 11.6174 59.4109 12.0652 59.4109C12.5129 59.4109 12.8712 59.5472 13.1399 59.8654C13.4085 60.1381 13.5428 60.5472 13.5428 61.0472C13.5428 61.5472 13.4085 61.9109 13.1399 62.229Z" fill="#262626"/>
<path id="Vector_14" d="M25.096 58.2734H23.5736L22.0064 62.0916L20.4392 58.2734H18.8721V63.8189H20.2154V60.6825L21.5139 63.8189H22.4989L23.7527 60.6825V63.8189H25.096V58.2734Z" fill="#262626"/>
<path id="Vector_15" d="M30.738 61.6825H31.5441C31.9024 61.6825 32.2606 61.6371 32.5293 61.5007C32.798 61.4098 33.0219 61.228 33.1563 61.0462C33.425 60.6825 33.5593 60.3189 33.5593 59.9553C33.5593 59.5007 33.3802 59.0916 33.0219 58.7734C32.6636 58.4553 32.1711 58.2734 31.5441 58.2734H29.3945V63.8189H30.738V61.6825ZM30.738 59.3189H31.5441C31.7232 59.3189 31.9024 59.3643 32.0367 59.5007C32.1711 59.6371 32.2158 59.7734 32.2158 60.0007C32.2158 60.1825 32.1711 60.3643 32.0367 60.5007C31.9024 60.6371 31.768 60.6825 31.5441 60.6825H30.738V59.3189Z" fill="#262626"/>
<path id="Vector_16" d="M38.8863 58.2734L36.9609 63.8643H38.3938L38.7072 62.9098H40.6774L40.9908 63.8643H42.4236L40.543 58.2734H38.8863ZM39.0206 61.8643L39.6475 59.8643L40.2744 61.8643H39.0206Z" fill="#262626"/>
<path id="Vector_17" d="M51.066 63.8189V58.2734H49.7227V61.7734L47.4839 58.2734H46.1406V63.8189H47.4839V60.3189L49.7227 63.8189H51.066Z" fill="#262626"/>
<path id="Vector_18" d="M56.7974 62.0462V63.8189H58.096V62.0462L60.0213 58.2734H58.4989L57.4691 60.7734L56.3945 58.2734H54.8721L56.7974 62.0462Z" fill="#262626"/>
<path id="Vector_19" d="M33.7819 6.72656C34.6327 7.90838 35.3043 9.27202 35.7969 10.6811C36.4237 10.772 37.0058 10.8629 37.5879 10.9993C37.6775 11.0447 37.767 11.0447 37.9014 11.0902C37.9461 11.0902 37.9461 11.0902 37.9909 11.0902C38.1252 11.1357 38.2596 11.1357 38.3491 11.1811C38.4834 11.2266 38.573 11.272 38.7073 11.272C38.7969 11.3175 38.9312 11.3175 39.0208 11.3629C39.1103 11.4084 39.2446 11.4538 39.3342 11.4538C39.4237 11.4993 39.5133 11.5447 39.6476 11.5447C39.7372 11.5902 39.8267 11.6357 39.9163 11.6357C40.4984 11.8629 41.0357 12.0902 41.573 12.4084C41.7073 12.4538 41.8416 12.5447 41.976 12.6357C42.1999 12.772 42.4237 12.8629 42.6028 12.9993C42.6924 13.0447 42.7819 13.0902 42.8715 13.1811C42.9163 13.2266 42.9611 13.2266 43.0058 13.272C43.0954 13.3175 43.1849 13.4084 43.2745 13.4538C43.364 13.4993 43.4536 13.5902 43.5431 13.6357C44.573 14.3629 45.5133 15.1811 46.3641 16.0902C46.4536 16.1811 46.5432 16.3175 46.6775 16.4084C46.7671 16.4993 46.8118 16.5902 46.9014 16.6811C47.0357 16.8175 47.1701 16.9538 47.2596 17.1357C47.3492 17.2266 47.3939 17.3175 47.4835 17.4084C47.573 17.5447 47.6626 17.6357 47.7521 17.772C47.8417 17.9084 47.9312 17.9993 48.0208 18.1357C48.1104 18.272 48.1999 18.3629 48.2447 18.4993C48.4238 18.7266 48.5581 18.9993 48.6924 19.2266C48.782 19.3629 48.8268 19.4538 48.9163 19.5902C49.0059 19.7266 49.0507 19.8629 49.1402 19.9538C49.2745 20.2266 49.4089 20.4993 49.5432 20.772C49.588 20.8629 49.6327 20.9993 49.6775 21.0902C49.7223 21.1811 49.7671 21.3175 49.8118 21.4084C49.8566 21.4993 49.9014 21.5902 49.9462 21.7266C49.9909 21.8175 50.0357 21.9084 50.0357 21.9993C50.1253 22.2266 50.2148 22.4538 50.3044 22.7266C50.3492 22.8629 50.3939 22.9993 50.4387 23.1357C50.4835 23.272 50.5283 23.4084 50.573 23.5447C50.6626 23.9538 50.7969 24.3175 50.8417 24.7266C50.8417 24.8175 50.8865 24.9084 50.8865 25.0447C50.8865 25.0902 50.8865 25.1811 50.9312 25.2266C50.9312 25.3175 50.976 25.3629 50.976 25.4538C50.976 25.5447 51.0208 25.6811 51.0208 25.772C51.0208 25.8629 51.0656 25.9993 51.0656 26.0902C51.0656 26.1357 51.0656 26.1811 51.0656 26.2266C51.0656 26.3175 51.0656 26.4084 51.1103 26.4993C51.1103 26.5902 51.1103 26.6811 51.1103 26.7266C51.1103 26.8629 51.1551 26.9538 51.1551 27.0902C51.1551 27.2266 51.1551 27.3629 51.1999 27.5447C51.1999 27.6811 51.1999 27.8629 51.1999 27.9993C51.1999 28.1357 51.1999 28.3175 51.1999 28.4538C51.1999 38.4538 43.1849 46.5448 33.379 46.5448C33.2446 46.5448 33.0655 46.5448 32.9312 46.5448C32.7969 46.5448 32.6178 46.5448 32.4834 46.5448C32.3491 46.5448 32.17 46.5448 32.0357 46.4994C31.9014 46.4994 31.767 46.4539 31.6327 46.4539C31.4984 46.4539 31.4088 46.4085 31.2745 46.4085C31.1849 46.4085 31.1402 46.4085 31.0506 46.363C30.9611 46.363 30.8267 46.3176 30.7372 46.3176C30.7372 46.3176 30.7372 46.3176 30.6924 46.3176C30.6028 46.3176 30.4685 46.2721 30.379 46.2721C30.2894 46.2721 30.1999 46.2267 30.1103 46.2267C29.976 46.1812 29.8417 46.1812 29.7073 46.1357C28.9909 45.9994 28.3193 45.8176 27.6476 45.5448C27.5133 45.4994 27.379 45.4539 27.2446 45.4084C27.1103 45.3629 26.976 45.3175 26.8864 45.272C26.7073 45.1811 26.5282 45.1357 26.3939 45.0447C26.3043 44.9993 26.17 44.9538 26.0805 44.9084C25.9461 44.8629 25.8566 44.8175 25.7222 44.7266C25.5879 44.6357 25.4536 44.5902 25.2745 44.4993C25.1402 44.4538 25.0506 44.3629 24.9163 44.3175C24.7819 44.2266 24.6476 44.1811 24.5133 44.0902C24.379 43.9993 24.2446 43.9538 24.1551 43.8629C23.9312 43.7266 23.7073 43.5902 23.4834 43.4084L23.4387 43.3629C23.3043 43.272 23.2148 43.1811 23.0805 43.1357C22.9461 43.0447 22.8566 42.9538 22.7222 42.8629C22.5879 42.772 22.4984 42.6811 22.364 42.5902C22.2745 42.4993 22.1849 42.4538 22.0954 42.3629C21.9611 42.2266 21.8267 42.1357 21.6476 41.9993C21.5581 41.9084 21.4685 41.8175 21.379 41.7266C21.2894 41.6357 21.1551 41.5447 21.0655 41.4084C20.976 41.3175 20.8417 41.2266 20.7521 41.0902C20.573 40.9084 20.3491 40.6811 20.17 40.4993C20.0805 40.4084 19.9909 40.272 19.8566 40.1357C19.6775 39.9084 19.4984 39.6811 19.3193 39.4538C19.2297 39.3175 19.0954 39.1811 19.0058 39.0447C18.9611 38.9538 18.8715 38.8629 18.8267 38.8175C18.8267 38.772 18.7819 38.772 18.7819 38.7266C18.6924 38.6356 18.6476 38.4993 18.5581 38.4084C18.4685 38.3175 18.4237 38.1811 18.3342 38.0902C18.2446 37.9538 18.1551 37.8175 18.0655 37.6357C17.9312 37.4084 17.7969 37.1356 17.6625 36.9084C17.3939 36.4084 17.17 35.9538 16.9461 35.4084C16.9014 35.272 16.8566 35.1811 16.8118 35.0447C16.767 34.9538 16.7222 34.8629 16.7222 34.772C16.6775 34.6811 16.6775 34.5902 16.6327 34.5447C16.5879 34.4538 16.5879 34.3629 16.5431 34.272C16.4984 34.1357 16.4536 34.0447 16.4088 33.9084C16.364 33.772 16.3193 33.6811 16.2745 33.5447V33.4993C16.2297 33.3629 16.1849 33.272 16.1849 33.1357C16.1402 32.9993 16.0954 32.8629 16.0954 32.7266C16.0058 32.3175 15.9163 31.9084 15.8267 31.4993C15.7819 31.3629 15.7819 31.2266 15.7372 31.0902C15.7372 30.9538 15.6924 30.8175 15.6924 30.6811C14.3043 30.1811 13.0058 29.4993 11.7969 28.6357C12.0208 40.5447 21.5581 50.1357 33.379 50.1357C45.2895 50.1357 54.9611 40.3175 54.9611 28.2266C55.0059 16.6357 45.5133 6.90838 33.7819 6.72656ZM15.6924 26.9084C15.6924 26.772 15.7372 26.6357 15.7372 26.4993C15.7372 26.3629 15.7819 26.2266 15.7819 26.0902C15.7819 25.9538 15.8267 25.8175 15.8267 25.6811C15.8267 25.5447 15.8715 25.4084 15.8715 25.272C15.9611 24.7266 16.0954 24.2266 16.2297 23.7266C16.2745 23.5902 16.3193 23.4538 16.3193 23.3629C16.364 23.272 16.364 23.1811 16.4088 23.0902C16.4088 23.0447 16.4536 22.9993 16.4536 22.9538C16.4984 22.8629 16.5431 22.7266 16.5431 22.6357C16.5879 22.5447 16.5879 22.4538 16.6327 22.3629C16.6327 22.3175 16.6775 22.2266 16.6775 22.1811C16.767 21.9538 16.8566 21.772 16.9461 21.5447C17.0357 21.3175 17.17 21.0447 17.2596 20.8175C17.3043 20.6811 17.3491 20.5902 17.4387 20.4993C17.4834 20.4084 17.5282 20.3629 17.5282 20.272C17.573 20.1811 17.6178 20.0902 17.6625 19.9993C17.6625 19.9538 17.7073 19.9538 17.7073 19.9084C17.7521 19.772 17.8417 19.6811 17.8864 19.5902C17.9312 19.4993 18.0208 19.4084 18.0655 19.272C18.1103 19.1811 18.1551 19.0902 18.1999 18.9993C18.2446 18.9084 18.2894 18.8629 18.3342 18.772C18.5581 18.4538 18.7372 18.1357 18.9611 17.8175C19.0506 17.7266 19.0954 17.5902 19.1849 17.4993C19.2297 17.4084 19.3193 17.3629 19.364 17.272C19.5431 17.0447 19.7222 16.8175 19.9014 16.5902C19.9909 16.4993 20.0805 16.4084 20.1252 16.3175C20.3043 16.1357 20.4834 15.9538 20.6625 15.772C20.7521 15.6811 20.7969 15.6357 20.8864 15.5447C21.0208 15.4084 21.1103 15.3175 21.2446 15.2266C21.3342 15.1357 21.4237 15.0902 21.5133 14.9993C21.6476 14.8629 21.8267 14.7266 22.0058 14.5902C22.0954 14.5447 22.1849 14.4538 22.2745 14.4084C22.6327 14.1357 22.9909 13.8629 23.3939 13.5902C23.4834 13.4993 23.6178 13.4538 23.7073 13.3629C23.7969 13.3175 23.8864 13.2266 23.976 13.1811C24.0208 13.1357 24.1103 13.0902 24.1999 13.0447C24.2894 12.9993 24.379 12.9084 24.5133 12.8629C24.6476 12.772 24.7819 12.7266 24.8715 12.6357C25.0058 12.5447 25.1402 12.4993 25.2745 12.4084C25.4088 12.3629 25.5431 12.272 25.6775 12.2266C25.9014 12.1357 26.1252 11.9993 26.3939 11.9084C26.573 11.8175 26.7521 11.772 26.9312 11.6811C27.0655 11.6357 27.1551 11.5902 27.2894 11.5447C27.379 11.4993 27.5133 11.4538 27.6028 11.4084C27.6476 11.4084 27.6924 11.3629 27.7819 11.3629C27.9163 11.3175 28.0058 11.272 28.1402 11.2266C28.2745 11.1811 28.4088 11.1357 28.5431 11.0902C28.6775 11.0447 28.8118 10.9993 28.9461 10.9538C29.0805 10.9084 29.2148 10.9084 29.3043 10.8629C29.3939 10.8629 29.4834 10.8175 29.573 10.8175C29.6178 10.8175 29.6625 10.8175 29.7073 10.772C29.7969 10.772 29.8417 10.7266 29.9312 10.7266C30.0655 10.6811 30.1999 10.6811 30.3342 10.6357C30.4237 10.6357 30.5133 10.5902 30.6028 10.5902C30.6924 10.5902 30.7819 10.5447 30.8715 10.5447C31.1402 10.4993 31.364 10.4993 31.6327 10.4538C31.0058 9.13565 30.1551 7.99929 29.1252 6.99929C20.6178 8.72656 13.9014 15.5447 12.1999 24.2266C13.2745 25.4084 14.3939 26.272 15.6924 26.9084Z" fill="#262626"/>
<path id="Vector_20" d="M36.379 13C35.4387 12.8182 34.4536 12.7273 33.4238 12.7273C33.1104 12.7273 32.7969 12.7273 32.4835 12.7727C32.7522 13.7727 32.8865 14.8636 32.8865 15.9545C32.8865 22.6818 27.5134 28.1364 20.8865 28.1364C19.8118 28.1364 18.782 28 17.7969 27.7273C17.7969 28.0455 17.7522 28.3182 17.7522 28.6364C17.7522 29.6818 17.8417 30.6818 18.0208 31.6818C18.9611 31.8636 19.9014 31.9545 20.8865 31.9545C29.5731 31.9545 36.6029 24.8182 36.6029 16C36.6476 14.9545 36.5581 13.9545 36.379 13ZM20.9312 0C12.2447 0 5.21484 7.13636 5.21484 15.9545C5.21484 20.3182 6.91629 24.2727 9.73719 27.1364C9.82674 25.4091 10.1402 23.6818 10.588 22.0455C9.55813 20.2727 8.97604 18.1818 8.97604 15.9545C8.97604 9.22727 14.3491 3.77273 20.976 3.77273C23.17 3.77273 25.1849 4.36364 26.9313 5.40909C28.5432 4.95455 30.2446 4.63636 31.9461 4.54545C29.0805 1.72727 25.2297 0 20.9312 0Z" fill="#262626"/>
</g>
<defs>
<clipPath id="clip0_2404_1061">
<rect width="60" height="70" fill="white" transform="translate(0.200195)"/>
</clipPath>
</defs>
</svg>
