<svg width="196" height="100" viewBox="0 0 196 100" fill="none" xmlns="http://www.w3.org/2000/svg">
<g id="logo5 1">
<path id="Vector" d="M146.597 38C146.129 38 145.75 38.3789 145.75 38.8461V44.7806H161.426L154.287 38.0005L146.597 38Z" fill="#595959"/>
<path id="Vector_2" d="M161.998 46.5761C161.998 46.1078 161.622 45.7305 161.152 45.7305H155.219V61.4071L161.995 54.2651L161.998 46.5761Z" fill="#595959"/>
<path id="Vector_3" d="M153.425 61.9754C153.891 61.9754 154.27 61.5959 154.27 61.1276V55.1953H138.594L145.734 61.9743L153.425 61.9754Z" fill="#595959"/>
<path id="Vector_4" d="M138.016 53.3991C138.016 53.8669 138.394 54.248 138.863 54.248H144.795V38.5703L138.017 45.7102L138.016 53.3991Z" fill="#595959"/>
<path id="Vector_5" d="M66.166 40.8627V48.1023H56.0798V40.8627L52.4062 40.8594V59.1137H56.0798V51.2716H66.166V59.1137H69.8455V40.8627H66.166Z" fill="#595959"/>
<path id="Vector_6" d="M115.039 40.8594V59.1061H131.156L129.114 55.8938H118.723V51.2683H128.785V48.1743H118.723V43.9965H129.097L131.097 40.8594H115.039Z" fill="#595959"/>
<path id="Vector_7" d="M38.7513 40.8594C34.93 40.8594 33 43.1825 33 46.5628V53.3766C33 57.2884 35.4872 59.1148 38.7322 59.1148L50.2577 59.1137L48.121 55.7771H39.4442C37.6009 55.7771 36.7978 55.1109 36.7978 53.0479V46.8659C36.7978 44.8716 37.4739 44.0936 39.4933 44.0936H48.2115L50.2631 40.8594H38.7513Z" fill="#595959"/>
<path id="Vector_8" d="M98.9109 40.8559C96.7039 40.8559 94.4419 42.1824 94.4419 45.5942V46.4709C94.4419 50.0278 96.6184 51.3848 98.7959 51.394H106.439C107.233 51.394 107.878 51.526 107.878 52.8677L107.877 54.4177C107.856 55.6231 107.255 55.899 106.412 55.899H96.3567L94.2969 59.1113H106.648C109.627 59.1113 111.649 57.6295 111.649 54.2067V52.9489C111.649 49.6396 109.77 48.076 106.857 48.076H99.5591C98.7501 48.076 98.1863 47.8552 98.1863 46.6568V45.3947C98.1863 44.3741 98.5729 44.0017 99.5155 44.0017L109.091 43.9979L111.093 40.8516L98.9109 40.8559Z" fill="#595959"/>
<path id="Vector_9" d="M80.5222 40.8594L71.8672 59.1093H75.9578L77.6436 55.3403H87.0487L88.729 59.1093H92.8376L84.1625 40.8594H80.5222ZM82.3371 44.6485L85.6629 52.2338H79.0327L82.3371 44.6485Z" fill="#595959"/>
</g>
</svg>
