<svg width="196" height="100" viewBox="0 0 196 100" fill="none" xmlns="http://www.w3.org/2000/svg">
<g id="logo2 1">
<path id="Vector" d="M90.2139 50.7078C90.2139 55.8225 86.2126 59.5914 81.3022 59.5914C76.3918 59.5914 72.3906 55.8225 72.3906 50.7078C72.3906 45.5571 76.3918 41.8242 81.3022 41.8242C86.2126 41.8242 90.2139 45.5571 90.2139 50.7078ZM86.3128 50.7078C86.3128 47.5116 83.9937 45.3248 81.3022 45.3248C78.6107 45.3248 76.2917 47.5116 76.2917 50.7078C76.2917 53.8719 78.6107 56.0908 81.3022 56.0908C83.9937 56.0908 86.3128 53.8679 86.3128 50.7078Z" fill="#595959"/>
<path id="Vector_2" d="M109.44 50.7078C109.44 55.8225 105.439 59.5914 100.529 59.5914C95.6184 59.5914 91.6172 55.8225 91.6172 50.7078C91.6172 45.5611 95.6184 41.8242 100.529 41.8242C105.439 41.8242 109.44 45.5571 109.44 50.7078ZM105.539 50.7078C105.539 47.5116 103.22 45.3248 100.529 45.3248C97.8373 45.3248 95.5183 47.5116 95.5183 50.7078C95.5183 53.8719 97.8373 56.0908 100.529 56.0908C103.22 56.0908 105.539 53.8679 105.539 50.7078Z" fill="#595959"/>
<path id="Vector_3" d="M127.866 42.3609V58.3097C127.866 64.8703 123.997 67.5498 119.423 67.5498C115.118 67.5498 112.526 64.67 111.549 62.3149L114.946 60.9011C115.55 62.347 117.032 64.0532 119.419 64.0532C122.347 64.0532 124.162 62.2469 124.162 58.8464V57.5687H124.025C123.152 58.6462 121.47 59.5874 119.347 59.5874C114.906 59.5874 110.836 55.7183 110.836 50.7398C110.836 45.7253 114.906 41.8242 119.347 41.8242C121.466 41.8242 123.148 42.7654 124.025 43.8108H124.162V42.3649H127.866V42.3609ZM124.438 50.7398C124.438 47.6117 122.351 45.3248 119.696 45.3248C117.004 45.3248 114.749 47.6117 114.749 50.7398C114.749 53.8359 117.004 56.0908 119.696 56.0908C122.351 56.0908 124.438 53.8359 124.438 50.7398Z" fill="#595959"/>
<path id="Vector_4" d="M133.977 33.0156V59.0496H130.172V33.0156H133.977Z" fill="#595959"/>
<path id="Vector_5" d="M148.798 53.6317L151.826 55.6503C150.849 57.0962 148.494 59.5875 144.425 59.5875C139.378 59.5875 135.609 55.6864 135.609 50.7039C135.609 45.421 139.41 41.8203 143.988 41.8203C148.598 41.8203 150.853 45.4891 151.59 47.4717L151.994 48.481L140.119 53.3994C141.028 55.1817 142.442 56.0909 144.425 56.0909C146.411 56.0909 147.789 55.1136 148.798 53.6317ZM139.478 50.4355L147.416 47.1392C146.98 46.0298 145.666 45.2568 144.12 45.2568C142.138 45.2568 139.378 47.0071 139.478 50.4355Z" fill="#595959"/>
<path id="Vector_6" d="M57.9903 48.3974V44.6285H70.6909C70.815 45.2853 70.8791 46.0624 70.8791 46.9035C70.8791 49.7312 70.1061 53.2277 67.6148 55.719C65.1917 58.2423 62.0956 59.588 57.9943 59.588C50.3923 59.588 44 53.3959 44 45.794C44 38.1921 50.3923 32 57.9943 32C62.1998 32 65.1957 33.6502 67.4466 35.801L64.7871 38.4604C63.173 36.9465 60.9862 35.7689 57.9903 35.7689C52.439 35.7689 48.0974 40.2428 48.0974 45.794C48.0974 51.3453 52.439 55.8191 57.9903 55.8191C61.591 55.8191 63.6416 54.3732 64.9554 53.0595C66.0208 51.9941 66.7217 50.4721 66.998 48.3934L57.9903 48.3974Z" fill="#595959"/>
</g>
</svg>
