<svg width="196" height="100" viewBox="0 0 196 100" fill="none" xmlns="http://www.w3.org/2000/svg">
<g id="logo3 1">
<path id="Vector" d="M39.7306 44.427L39 34H49.427V43.9415L39.7306 44.427Z" fill="#595959"/>
<path id="Vector_2" opacity="0.5" d="M52.0945 34.4844L62.7805 35.215V43.945H51.5859L52.0945 34.4844Z" fill="#595959"/>
<path id="Vector_3" opacity="0.5" d="M39.7344 46.9844V54.7434L50.1567 55.9549V46.9844H39.7344Z" fill="#595959"/>
<path id="Vector_4" d="M52.5469 47.2388L52.5792 55.4093L61.73 55.0856L62.1277 46.9336L52.5469 47.2388Z" fill="#595959"/>
<path id="Vector_5" d="M49.4293 58.3729V66.6128H39.9688L40.6993 57.8828L49.4293 58.3729Z" fill="#595959"/>
<path id="Vector_6" d="M78.3114 62.2504C78.3669 62.7775 78.0941 63.2815 77.6224 63.522C77.3727 63.6237 77.1092 63.6792 76.8364 63.6792C76.5867 63.6699 76.3462 63.6144 76.115 63.522C75.648 63.2769 75.3752 62.7775 75.4261 62.2504V49.6825H73.8308C73.2251 49.738 72.6933 49.2941 72.6378 48.6884C72.6286 48.6144 72.6332 48.5358 72.6425 48.4618C72.5685 47.8607 72.9939 47.315 73.595 47.2457C73.6736 47.2364 73.7522 47.2364 73.8308 47.2411H75.4446C75.4446 44.8597 75.4446 44.0135 75.9763 43.0749C76.7254 41.6646 78.2929 41.1328 80.2118 41.1328C80.7112 41.1328 81.8395 41.1328 81.8395 42.3535C81.8395 43.4494 80.9332 43.5465 80.4292 43.5743C79.583 43.639 79.2085 43.6667 78.8339 43.9997C78.3022 44.4251 78.3022 44.8459 78.3022 47.2596H80.6141C81.0395 47.2596 81.8071 47.352 81.8071 48.4803C81.8626 49.0906 81.4094 49.6316 80.7991 49.6825C80.7297 49.6871 80.6604 49.6871 80.5956 49.6825H78.3068L78.3114 62.2504ZM94.9576 62.3937C94.9299 62.7359 94.8651 63.6653 93.686 63.6653C93.1866 63.6931 92.7196 63.4249 92.493 62.9763C92.4006 62.7266 92.3682 62.5972 92.3682 61.4736C91.1475 62.9995 89.2794 63.8595 87.3235 63.7902C84.0636 63.7902 82.0614 61.788 82.0614 58.8102C82.0614 55.0833 85.1317 54.4868 86.8241 54.1492L89.4875 53.5851C90.551 53.3632 91.1151 53.2429 91.3972 53.1597C92.0538 52.9747 92.2757 52.7343 92.2757 51.939C92.2757 49.2756 89.58 49.2756 89.0158 49.2756C86.2923 49.2756 85.8207 50.6212 85.5386 51.472C85.4461 51.8974 85.2889 52.4754 84.2208 52.4754C83.0602 52.4754 82.7504 51.8188 82.7504 51.2546C82.8198 50.6027 83.0463 49.9831 83.407 49.4374C84.6786 47.5277 86.8518 46.9636 89.0112 46.9636C90.8284 46.9636 92.7057 47.3058 93.8664 48.6606C94.9299 49.9322 94.9299 51.5136 94.9299 53.0441L94.9576 62.3937ZM88.5349 56.0404C87.9939 56.1422 87.4576 56.2809 86.9397 56.4658C85.8299 56.7155 85.0439 57.7097 85.0577 58.8472C85.0577 60.5719 86.4033 61.4458 87.9708 61.4458C89.3118 61.4504 90.5833 60.8355 91.4157 59.7858C92.2295 58.6576 92.2618 57.1825 92.2942 55.0879C91.6145 55.37 90.9024 55.5688 90.1764 55.6844L88.5349 56.0404ZM108.413 58.4865C108.635 57.8946 108.913 57.2658 109.759 57.2658C110.138 57.2658 111.262 57.4877 111.262 58.5836C111.206 59.2541 110.984 59.9014 110.61 60.4609C110.11 61.3395 108.668 63.7809 104.219 63.7809C98.5134 63.7809 96.6685 59.2402 96.6685 55.3052C96.65 54.0706 96.8395 52.8407 97.2326 51.6708C98.9296 46.9081 103.216 46.9081 104.377 46.9081C108.011 46.9081 109.463 48.4433 110.309 49.8212C110.966 50.857 110.966 51.2315 110.966 51.4535C110.938 52.2395 110.281 52.8592 109.491 52.836C109.472 52.836 109.449 52.836 109.431 52.8314C108.552 52.8314 108.27 52.2395 107.928 51.5136C107.29 50.0802 105.819 49.197 104.252 49.308C100.932 49.308 99.6463 52.1609 99.6463 55.1989C99.6463 57.8946 100.46 61.3395 104.252 61.3395C107.123 61.3395 107.942 59.4899 108.413 58.4865ZM114.776 49.6825H113.116C112.505 49.7287 111.969 49.271 111.923 48.6606C111.918 48.5959 111.918 48.5265 111.927 48.4618C111.853 47.8607 112.279 47.315 112.88 47.2457C112.959 47.2364 113.037 47.2364 113.116 47.2411H114.813V43.5743C114.813 43.1489 114.938 42.2287 116.223 42.2287C117.509 42.2287 117.666 43.135 117.666 43.5743V47.2411H119.608C120.204 47.1856 120.731 47.6202 120.792 48.2167C120.801 48.2953 120.796 48.3785 120.787 48.4618C120.847 49.0721 120.399 49.6178 119.784 49.6779C119.723 49.6825 119.663 49.6825 119.608 49.6825H117.666V57.6449C117.666 59.5269 117.694 59.7627 117.791 60.1187C118.013 61.025 118.604 61.1823 119.451 61.247C120.204 61.2794 120.986 61.3395 120.986 62.44C120.986 63.5358 119.982 63.6699 119.136 63.6699C114.78 63.6699 114.78 61.3163 114.78 58.8795V49.6825H114.776ZM136.522 62.2781C136.559 62.7868 136.286 63.2676 135.833 63.4988C135.371 63.6884 134.853 63.6884 134.391 63.4988C133.734 63.1567 133.734 62.6527 133.734 61.3811C132.388 63.1659 131.038 63.7624 128.749 63.7624C128 63.7624 125.989 63.6977 124.583 62.1672C123.238 60.6644 123.238 58.6576 123.238 57.1825V48.4941C123.27 47.6896 123.95 47.0653 124.754 47.1023C125.499 47.1347 126.1 47.7219 126.146 48.4664V56.2624C126.146 58.3801 126.239 59.2263 126.645 59.9893C127.367 61.3071 128.842 61.3071 129.212 61.3071C131.246 61.3811 133.036 59.98 133.447 57.9871C133.605 57.1178 133.66 56.2346 133.605 55.3561V48.4941C133.646 47.6896 134.335 47.0746 135.14 47.1162C135.884 47.1578 136.476 47.7497 136.518 48.4941L136.522 62.2781ZM151.347 62.3937C151.319 62.7359 151.254 63.6653 150.075 63.6653C149.576 63.6931 149.109 63.4249 148.882 62.9763C148.79 62.7266 148.757 62.5972 148.757 61.4736C147.536 62.9995 145.664 63.8595 143.712 63.7902C140.453 63.7902 138.45 61.788 138.45 58.8102C138.45 55.0833 141.521 54.4868 143.213 54.1492L145.876 53.5851C146.94 53.3632 147.504 53.2429 147.786 53.1597C148.443 52.9747 148.665 52.7343 148.665 51.939C148.665 49.2756 145.969 49.2756 145.405 49.2756C142.681 49.2756 142.21 50.6212 141.928 51.472C141.835 51.8974 141.678 52.4754 140.61 52.4754C139.449 52.4754 139.139 51.8188 139.139 51.2546C139.209 50.6027 139.435 49.9831 139.796 49.4374C141.068 47.5277 143.241 46.9636 145.4 46.9636C147.217 46.9636 149.099 47.3058 150.255 48.6606C151.319 49.9322 151.319 51.5136 151.319 53.0441L151.347 62.3937ZM144.938 56.0404C144.397 56.1422 143.86 56.2809 143.343 56.4658C142.233 56.7155 141.447 57.7097 141.461 58.8472C141.461 60.5719 142.806 61.4458 144.374 61.4458C145.715 61.4504 146.986 60.8355 147.818 59.7858C148.632 58.6576 148.665 57.1825 148.697 55.0879C148.017 55.37 147.305 55.5688 146.579 55.6844L144.938 56.0404ZM157.367 62.2504C157.367 63.0457 156.72 63.6884 155.924 63.6884C155.129 63.6884 154.486 63.0457 154.486 62.2504V42.5431C154.449 41.8172 155.004 41.2022 155.73 41.1606C155.795 41.1559 155.864 41.1606 155.929 41.1652C156.641 41.082 157.284 41.5952 157.362 42.3073C157.372 42.3859 157.372 42.4645 157.367 42.5431V62.2504Z" fill="#595959"/>
</g>
</svg>
