<svg width="196" height="100" viewBox="0 0 196 100" fill="none" xmlns="http://www.w3.org/2000/svg">
<g id="logo6 1">
<path id="Vector" d="M49 56.5104V36.4219H52.6199V56.5102L49 56.5104ZM61.8862 41.9369C57.2449 41.9369 54.0331 45.4156 54.0331 49.3972C54.0331 53.8411 57.5272 56.9022 61.9222 56.9022C66.0933 56.9022 69.7128 53.8973 69.7128 49.3877C69.7128 45.5955 66.7137 41.9369 61.8862 41.9369ZM61.8435 45.3411C64.2724 45.3411 66.0601 47.1841 66.0601 49.41C66.0601 51.7701 64.0891 53.4917 61.909 53.4917C59.3332 53.4917 57.7121 51.5015 57.7121 49.4164C57.7121 47.1309 59.5423 45.3411 61.8435 45.3411ZM78.8079 41.9369C74.1667 41.9369 70.9549 45.4156 70.9549 49.3972C70.9549 53.8411 74.449 56.9022 78.844 56.9022C83.0151 56.9022 86.6346 53.8973 86.6346 49.3877C86.6346 46.7321 85.4549 45.5537 85.4549 45.5537L86.4583 45.2183V42.3543H81.3169C81.3169 42.3543 80.2024 41.9369 78.8079 41.9369ZM78.7653 45.3411C81.1942 45.3411 82.982 47.1841 82.982 49.41C82.982 51.7701 81.0109 53.4917 78.8308 53.4917C76.255 53.4917 74.6338 51.5015 74.6338 49.4164C74.6338 47.1309 76.4641 45.3411 78.7653 45.3411ZM82.9564 57.4922C82.9564 59.8523 80.9853 61.5867 78.8052 61.5867C76.2294 61.5867 74.6017 59.5774 74.6017 57.4922H70.9293C70.9293 61.9361 74.4234 64.9973 78.8184 64.9973C82.9895 64.9973 86.609 62.002 86.609 57.4922H82.9564ZM88.0845 56.5104V42.3543H91.7044V56.5103L88.0845 56.5104ZM95.2195 56.5104V45.5252H93.2783V42.3543H95.2195V38.0074H98.8393V42.3543H100.833V45.5252H98.8394V56.5103L95.2195 56.5104Z" fill="#595959"/>
<path id="Vector_2" d="M89.8893 40.6734C91.2131 40.6734 92.2863 39.6272 92.2863 38.3367C92.2863 37.0462 91.2131 36 89.8893 36C88.5654 36 87.4922 37.0462 87.4922 38.3367C87.4922 39.6272 88.5654 40.6734 89.8893 40.6734Z" fill="#595959"/>
<path id="Vector_3" d="M108.974 41.9315C104.311 41.9315 101.305 45.412 101.305 49.5293C101.305 53.784 104.321 56.916 109.05 56.916C113.461 56.916 115.63 54.2311 115.63 54.2311L113.211 51.869C113.211 51.869 111.383 53.79 109.096 53.79C107.188 53.79 105.663 52.7523 105.131 50.8494H116.411V49.8776C116.411 46.0005 114.109 41.9315 108.974 41.9315ZM108.86 45.0385C110.527 45.0385 112.232 45.908 112.614 47.9855H105.033C105.333 46.5252 106.644 45.0385 108.86 45.0385ZM125.465 56.9179C120.789 56.9179 117.603 53.4458 117.603 49.3521C117.603 45.1274 121.204 41.9289 125.45 41.9289C129.555 41.9289 131.657 44.754 131.657 44.754L129.132 47.2044C129.132 47.2044 127.669 45.3621 125.433 45.3621C122.955 45.3621 121.261 47.2098 121.261 49.4063C121.261 51.7255 123.063 53.5049 125.405 53.5049C127.677 53.5049 129.128 51.6654 129.128 51.6654L131.679 54.1146C131.679 54.1146 129.598 56.9179 125.465 56.9179ZM132.996 56.5247V36.375H136.615V43.7781C136.615 43.7781 138.002 41.9289 141.017 41.9289C144.807 41.9289 147.003 44.6757 147.003 48.1887V56.5247H143.383V48.722C143.383 46.3619 141.876 45.3827 140.206 45.3827C138.303 45.3827 136.615 46.4382 136.615 48.9046V56.5247H132.996Z" fill="#595959"/>
</g>
</svg>
