<svg width="196" height="100" viewBox="0 0 196 100" fill="none" xmlns="http://www.w3.org/2000/svg">
<g id="logo1 (1) 1">
<path id="Vector" d="M114.289 47.8601L106.745 40.1793V40.126C106.286 39.6835 105.679 39.4423 105.051 39.4535C104.424 39.4647 103.825 39.7273 103.381 40.1859C102.937 40.6446 102.683 41.2635 102.672 41.912C102.661 42.5605 102.895 43.1881 103.323 43.6623L103.375 43.7079L110.808 51.4952H114.325V47.8601H114.289Z" fill="#595959"/>
<path id="Vector_2" d="M115.578 56.4242L123.107 64.1051L123.158 64.1583C123.612 64.6262 124.227 64.8887 124.868 64.888C125.509 64.8873 126.124 64.6234 126.577 64.1545C127.03 63.6856 127.284 63.0499 127.283 62.3875C127.282 61.725 127.027 61.09 126.573 60.6221L126.529 60.5764L119.096 52.7891H115.578V56.4242Z" fill="#595959"/>
<path id="Vector_3" d="M119.074 51.4952L126.507 43.7079L126.558 43.6623C126.987 43.1881 127.22 42.5605 127.209 41.912C127.198 41.2635 126.944 40.6446 126.5 40.1859C126.057 39.7273 125.458 39.4647 124.83 39.4535C124.202 39.4423 123.595 39.6835 123.136 40.126L123.092 40.1793L115.578 47.8601V51.4952H119.074Z" fill="#595959"/>
<path id="Vector_4" d="M110.775 52.7889L103.35 60.5686L103.298 60.6143C102.844 61.0872 102.591 61.7271 102.594 62.3931C102.595 62.7229 102.659 63.0492 102.783 63.3533C102.906 63.6575 103.086 63.9334 103.313 64.1656C103.54 64.3978 103.808 64.5817 104.104 64.7066C104.399 64.8315 104.715 64.895 105.034 64.8936C105.679 64.8908 106.296 64.6235 106.75 64.1505L106.794 64.0973L114.33 56.424V52.7812H110.805L110.775 52.7889Z" fill="#595959"/>
<path id="Vector_5" d="M47.9368 61.0997L47.0463 47.9282C46.9433 46.4072 46.8771 45.1296 46.8771 43.814C46.5974 45.2361 46.3913 46.0954 45.9792 47.6164L42.2038 61.0997H38.1266L34.7266 48.1715C34.4175 46.9624 33.9906 45.2285 33.7625 43.8064C33.7625 45.2665 33.6962 46.719 33.5932 48.24L32.7689 61.0997H28L30.2078 36.4525H36.353L39.4734 48.7951C39.8147 50.0796 40.0899 51.3818 40.2977 52.6964C40.5254 51.3457 40.8202 50.008 41.1808 48.6886L44.4043 36.4525H50.5127L52.6395 61.0997H47.9368ZM68.823 62.0198C67.7801 61.6004 66.9075 60.8249 66.3503 59.8221C66.0215 60.1693 65.6672 60.4897 65.2905 60.7803C64.2376 61.4802 63.0016 61.8281 61.7506 61.7765C57.8427 61.7765 55.7158 59.7156 55.7158 56.1033C55.7158 51.8446 58.5639 49.8598 64.1571 49.8598H65.1875V49.0993C65.1875 47.0764 64.8048 46.3996 63.1268 46.3996C61.6549 46.3996 59.9328 47.1601 58.0488 48.4605L56.0911 45.0536C56.9922 44.4554 57.9458 43.9461 58.9393 43.5326C60.452 42.8358 62.0888 42.4732 63.745 42.4679C66.6888 42.4679 68.72 43.601 69.4044 45.6239C69.7162 46.6794 69.8213 47.7885 69.7135 48.8864L69.6105 54.9702C69.6105 56.9551 69.7135 57.8068 71.259 59.016L68.823 62.0198ZM64.9078 53.1527C61.7211 53.1527 60.6172 53.761 60.6172 55.9208C60.5877 56.2167 60.6177 56.5157 60.7053 56.7991C60.7929 57.0825 60.9361 57.3441 61.1262 57.5676C61.3162 57.7911 61.5488 57.9716 61.8095 58.0978C62.0702 58.224 62.3533 58.2932 62.6411 58.3011C63.1042 58.278 63.5575 58.1551 63.9719 57.9403C64.3863 57.7256 64.7528 57.4236 65.0476 57.0539L65.1139 53.1527H64.9078ZM79.5164 61.5255C77.1834 61.5255 75.3288 60.4609 74.7842 58.8639C74.4859 57.9652 74.3805 57.0103 74.4751 56.0653V46.1791H72.7236V42.947H74.4751C74.4381 41.5125 74.4946 40.077 74.6444 38.6503L79.3103 37.4488C79.1306 39.2757 79.0397 41.1107 79.038 42.947H83.1519L81.9891 46.2095H79.0454V55.3352C79.0454 57.6167 79.4575 58.2403 81.0324 58.2403C81.5948 58.2021 82.1495 58.0844 82.6809 57.8904L83.2623 60.727C82.0772 61.2469 80.8039 61.5183 79.5164 61.5255ZM93.8894 47.0916C93.4825 46.8501 93.0191 46.729 92.55 46.7418C92.0013 46.7625 91.464 46.9099 90.9775 47.1731C90.4911 47.4362 90.0678 47.8086 89.7387 48.2628V61.0997H85.139V48.97C85.2049 47.171 84.9862 45.3729 84.4914 43.6467L88.6053 42.5135C89.0449 43.3032 89.2971 44.1893 89.3413 45.0992C90.3348 43.7151 91.7478 42.5135 93.4626 42.5135C94.0566 42.492 94.6463 42.6254 95.1773 42.9014L93.8894 47.0916ZM98.7246 40.8861C98.3525 40.8841 97.9844 40.8064 97.6414 40.6574C97.2984 40.5085 96.9871 40.2911 96.7254 40.0178C96.4637 39.7445 96.2566 39.4207 96.116 39.0647C95.9754 38.7087 95.904 38.3276 95.9059 37.9431C95.9137 37.1584 96.2213 36.4087 96.7617 35.8575C97.3021 35.3062 98.0315 34.998 98.7908 35C99.1625 35.001 99.5303 35.0781 99.873 35.2269C100.216 35.3757 100.526 35.5933 100.787 35.867C101.048 36.1407 101.254 36.4651 101.392 36.8214C101.531 37.1778 101.6 37.559 101.595 37.9431C101.596 38.3318 101.522 38.7168 101.378 39.0758C101.234 39.4349 101.022 39.7607 100.755 40.0345C100.488 40.3083 100.171 40.5246 99.8225 40.6708C99.4739 40.8169 99.1007 40.8902 98.7246 40.8861ZM96.4432 61.0997V43.2588L101.043 42.4983V61.0997H96.4432ZM131.106 40.8861C130.735 40.8841 130.367 40.8064 130.024 40.6573C129.682 40.5082 129.371 40.2908 129.11 40.0174C128.849 39.744 128.642 39.42 128.502 39.0641C128.363 38.7081 128.292 38.3272 128.295 37.9431C128.301 37.1591 128.607 36.4094 129.146 35.8579C129.685 35.3064 130.414 34.998 131.173 35C131.544 35.001 131.912 35.0781 132.255 35.2269C132.597 35.3757 132.908 35.5933 133.169 35.867C133.43 36.1407 133.635 36.4651 133.774 36.8214C133.913 37.1778 133.981 37.559 133.977 37.9431C133.978 38.3318 133.904 38.7168 133.76 39.0758C133.615 39.4349 133.404 39.7607 133.137 40.0345C132.87 40.3083 132.553 40.5246 132.204 40.6708C131.856 40.8169 131.482 40.8902 131.106 40.8861ZM128.825 61.0997V43.2588L133.417 42.4983V61.0997H128.825ZM148.916 62.0198C147.873 61.6004 147.001 60.8249 146.443 59.8221C146.116 60.1711 145.762 60.4916 145.384 60.7803C144.331 61.4802 143.095 61.8281 141.844 61.7765C137.936 61.7765 135.809 59.7156 135.809 56.1033C135.809 51.8446 138.657 49.8598 144.25 49.8598H145.281V49.0993C145.281 47.0764 144.898 46.3996 143.22 46.3996C141.748 46.3996 140.026 47.1601 138.142 48.4605L136.184 45.1068C137.085 44.5086 138.039 43.9994 139.032 43.5858C140.545 42.889 142.182 42.5264 143.838 42.5212C146.782 42.5212 148.813 43.6543 149.498 45.6771C149.809 46.7326 149.915 47.8417 149.807 48.9396L149.704 55.0234C149.704 57.0083 149.807 57.86 151.352 59.0692L148.916 62.0198ZM145.016 53.1527C141.829 53.1527 140.733 53.761 140.733 55.9208C140.702 56.2169 140.731 56.5164 140.818 56.8003C140.905 57.0842 141.049 57.3463 141.239 57.57C141.429 57.7937 141.662 57.9742 141.923 58.1001C142.185 58.2259 142.468 58.2944 142.756 58.3011C143.216 58.2749 143.665 58.1505 144.075 57.9358C144.486 57.7212 144.848 57.4209 145.141 57.0539L145.207 53.1527H145.016ZM162.885 61.0997V49.2894C162.885 47.2361 162.539 46.6277 161.339 46.6277C160.125 46.7807 158.998 47.3575 158.145 48.2628V61.0997H153.545V47.9282C153.568 46.4831 153.359 45.0442 152.927 43.6695L157.012 42.4679C157.418 43.1566 157.644 43.943 157.667 44.7494C158.315 44.2596 158.991 43.8101 159.691 43.4033C160.674 42.9073 161.753 42.6473 162.848 42.6428C164.805 42.6428 166.527 43.6999 167.072 45.2665C167.332 46.101 167.446 46.9764 167.411 47.8521V61.0997H162.885Z" fill="#595959"/>
</g>
</svg>
